<svg width="100" height="100" viewBox="0 0 100 100" fill="none" xmlns="http://www.w3.org/2000/svg">
<rect x="14.5" y="14.5" width="71" height="71" rx="9.5" stroke="#333333" stroke-width="5"/>
<path d="M14 67L34.9293 55.5513C36.6245 54.624 37.4721 54.1604 38.3767 54.1105C38.6736 54.0941 38.9713 54.1109 39.2645 54.1605C40.1578 54.3118 40.9479 54.8677 42.5281 55.9797L49.0343 60.558C50.7084 61.736 51.5454 62.325 52.4881 62.4631C52.797 62.5084 53.1101 62.5173 53.421 62.4898C54.3701 62.4057 55.2394 61.8655 56.978 60.7851L72.9889 50.8355C74.9347 49.6263 75.9075 49.0217 76.9553 48.9764C77.2973 48.9617 77.6398 48.9908 77.9744 49.0633C78.9994 49.2852 79.856 50.0456 81.5692 51.5665L86 55.5" stroke="#333333" stroke-width="5"/>
<circle cx="65.5" cy="33.5" r="7" stroke="#333333" stroke-width="5"/>
</svg>
