<svg width="100" height="100" viewBox="0 0 100 100" fill="none" xmlns="http://www.w3.org/2000/svg">
<rect x="11.5" y="10.5" width="78" height="78" rx="9.5" stroke="white" stroke-width="5"/>
<path fill-rule="evenodd" clip-rule="evenodd" d="M52.2678 26.7322C51.2915 25.7559 49.7085 25.7559 48.7322 26.7322C47.7559 27.7085 47.7559 29.2915 48.7322 30.2678L66.4645 48H28.5C27.1193 48 26 49.1193 26 50.5C26 51.8807 27.1193 53 28.5 53H66.4645L48.7322 70.7322C47.7559 71.7085 47.7559 73.2915 48.7322 74.2678C49.7085 75.2441 51.2915 75.2441 52.2678 74.2678L74.2678 52.2678C74.749 51.7865 74.9931 51.1579 74.9999 50.5271C75 50.509 75 50.491 74.9999 50.4729C74.9964 50.1446 74.9296 49.8315 74.8112 49.5452C74.6892 49.2495 74.508 48.9725 74.2678 48.7322L52.2678 26.7322Z" fill="white" fill-opacity="0.64"/>
</svg>
