<svg width="100" height="100" viewBox="0 0 100 100" fill="none" xmlns="http://www.w3.org/2000/svg">
<rect x="11.5" y="10.5" width="78" height="78" rx="9.5" stroke="#333333" stroke-width="5"/>
<path fill-rule="evenodd" clip-rule="evenodd" d="M51.7678 25.2322C50.7915 24.2559 49.2085 24.2559 48.2322 25.2322C47.2559 26.2085 47.2559 27.7915 48.2322 28.7678L65.9645 46.5H28C26.6193 46.5 25.5 47.6193 25.5 49C25.5 50.3807 26.6193 51.5 28 51.5H65.9645L48.2322 69.2322C47.2559 70.2085 47.2559 71.7915 48.2322 72.7678C49.2085 73.7441 50.7915 73.7441 51.7678 72.7678L73.7678 50.7678C74.249 50.2865 74.4931 49.6579 74.4999 49.0271C74.5 49.009 74.5 48.991 74.4999 48.9729C74.4964 48.6446 74.4296 48.3315 74.3112 48.0452C74.1892 47.7495 74.008 47.4725 73.7678 47.2322L51.7678 25.2322Z" fill="#333333" fill-opacity="0.3"/>
</svg>
