<?xml version="1.0" encoding="UTF-8"?>
<!--Generator: Apple Native CoreSVG 175.5-->
<!DOCTYPE svg
PUBLIC "-//W3C//DTD SVG 1.1//EN"
       "http://www.w3.org/Graphics/SVG/1.1/DTD/svg11.dtd">
<svg version="1.1" xmlns="http://www.w3.org/2000/svg" xmlns:xlink="http://www.w3.org/1999/xlink" width="37.3438" height="18.4082">
 <g>
  <rect height="18.4082" opacity="0" width="37.3438" x="0" y="0"/>
  <path d="M12.5391 18.4082L24.8047 18.4082C26.4258 18.4082 27.207 17.9199 27.207 16.8457C27.207 14.2871 23.9746 10.5859 18.6719 10.5859C13.3691 10.5859 10.1367 14.2871 10.1367 16.8457C10.1367 17.9199 10.9082 18.4082 12.5391 18.4082ZM12.0703 16.9336C11.8164 16.9336 11.709 16.8652 11.709 16.6602C11.709 15.0586 14.1895 12.0605 18.6719 12.0605C23.1543 12.0605 25.6348 15.0586 25.6348 16.6602C25.6348 16.8652 25.5273 16.9336 25.2734 16.9336ZM18.6719 9.23828C20.9961 9.23828 22.8906 7.16797 22.8906 4.64844C22.8906 2.1582 21.0254 0.185547 18.6719 0.185547C16.3574 0.185547 14.4531 2.1875 14.4629 4.66797C14.4629 7.17773 16.3574 9.23828 18.6719 9.23828ZM18.6719 7.76367C17.2461 7.76367 16.0352 6.39648 16.0352 4.66797C16.0254 2.96875 17.2266 1.66016 18.6719 1.66016C20.1367 1.66016 21.3184 2.94922 21.3184 4.64844C21.3184 6.37695 20.1172 7.76367 18.6719 7.76367ZM1.98242 18.4082L9.64844 18.4082C9.17969 18.1445 8.82812 17.5586 8.89648 16.9629L1.74805 16.9629C1.54297 16.9629 1.45508 16.8848 1.45508 16.6992C1.45508 14.2773 4.21875 12.0117 7.41211 12.0117C8.63281 12.0117 9.74609 12.3047 10.6934 12.8613C10.9961 12.4707 11.3574 12.1289 11.7969 11.8262C10.5371 10.9961 9.02344 10.5664 7.41211 10.5664C3.32031 10.5664 0 13.5352 0 16.7871C0 17.8711 0.664062 18.4082 1.98242 18.4082ZM7.42188 9.45312C9.43359 9.45312 11.084 7.64648 11.084 5.42969C11.084 3.26172 9.45312 1.51367 7.42188 1.51367C5.41016 1.51367 3.75 3.29102 3.75977 5.44922C3.75977 7.65625 5.41016 9.45312 7.42188 9.45312ZM7.42188 7.99805C6.2207 7.99805 5.21484 6.85547 5.21484 5.44922C5.21484 4.07227 6.21094 2.96875 7.42188 2.96875C8.65234 2.96875 9.63867 4.05273 9.63867 5.42969C9.63867 6.85547 8.62305 7.99805 7.42188 7.99805ZM35.3613 18.4082C36.6797 18.4082 37.3438 17.8711 37.3438 16.7871C37.3438 13.5352 34.0234 10.5664 29.9316 10.5664C28.3203 10.5664 26.8066 10.9961 25.5469 11.8262C25.9863 12.1289 26.3477 12.4707 26.6504 12.8613C27.5977 12.3047 28.7012 12.0117 29.9316 12.0117C33.125 12.0117 35.8887 14.2773 35.8887 16.6992C35.8887 16.8848 35.8008 16.9629 35.5957 16.9629L28.4473 16.9629C28.5156 17.5586 28.1543 18.1445 27.6953 18.4082ZM29.9219 9.45312C31.9336 9.45312 33.584 7.65625 33.584 5.44922C33.5938 3.29102 31.9336 1.51367 29.9219 1.51367C27.8906 1.51367 26.2598 3.26172 26.2598 5.42969C26.2598 7.64648 27.9102 9.45312 29.9219 9.45312ZM29.9219 7.99805C28.7207 7.99805 27.7051 6.85547 27.7051 5.42969C27.7051 4.05273 28.6914 2.96875 29.9219 2.96875C31.1328 2.96875 32.1289 4.07227 32.1289 5.44922C32.1289 6.85547 31.1133 7.99805 29.9219 7.99805Z" fill="#ffffff" fill-opacity="0.85"/>
 </g>
</svg>
