<svg width="100" height="100" viewBox="0 0 100 100" fill="none" xmlns="http://www.w3.org/2000/svg">
<path d="M53.5175 9.34138L53.5272 9.34694L84.1584 26.945C84.1601 26.946 84.1618 26.9469 84.1635 26.9479C85.1105 27.4989 85.8988 28.291 86.4482 29.2467C86.9987 30.2041 87.2896 31.2912 87.2907 32.3989V67.6011C87.2896 68.7088 86.9987 69.7959 86.4482 70.7533C85.8989 71.7089 85.1107 72.501 84.1638 73.0519C84.162 73.053 84.1602 73.054 84.1584 73.055L53.5272 90.653L53.5176 90.6586C52.5674 91.2102 51.4906 91.5 50.3953 91.5C49.3001 91.5 48.2233 91.2102 47.2732 90.6586L47.2635 90.6531L16.6323 73.055C16.6307 73.0541 16.629 73.0531 16.6274 73.0522C15.6803 72.5012 14.8919 71.709 14.3425 70.7533C13.7922 69.7962 13.5013 68.7095 13.5 67.6021V32.3979C13.5013 31.2905 13.7922 30.2038 14.3425 29.2467C14.892 28.2909 15.6804 27.4986 16.6277 26.9477C16.6292 26.9468 16.6308 26.9459 16.6323 26.945L47.2635 9.34696L47.2731 9.34136C48.2233 8.78982 49.3001 8.5 50.3953 8.5C51.4906 8.5 52.5674 8.78982 53.5175 9.34138Z" stroke="#333333" stroke-width="5" stroke-linecap="round" stroke-linejoin="round"/>
</svg>
