<svg width="1370" height="501" viewBox="0 0 1370 501" fill="none" xmlns="http://www.w3.org/2000/svg">
<path d="M680.372 357.405C669.494 359.443 658.82 360.31 648.348 360.004C637.979 359.8 628.676 357.915 620.442 354.347C612.207 350.678 605.954 344.919 601.685 337.07C597.923 329.936 595.941 322.648 595.737 315.207C595.534 307.766 595.432 299.357 595.432 289.98V146.416H632.031V287.84C632.031 294.465 632.082 300.275 632.184 305.269C632.387 310.264 633.455 314.341 635.386 317.5C639.046 323.616 644.892 327.031 652.923 327.744C660.955 328.458 670.104 328.05 680.372 326.521V357.405ZM565.543 221.179V192.283H680.372V221.179H565.543Z" fill="black"/>
<path d="M812.927 357.405V277.902C812.927 272.703 812.571 266.945 811.86 260.625C811.148 254.306 809.471 248.241 806.827 242.431C804.286 236.519 800.423 231.678 795.238 227.906C790.155 224.135 783.241 222.249 774.498 222.249C769.822 222.249 765.196 223.014 760.621 224.543C756.046 226.072 751.878 228.722 748.116 232.493C744.457 236.163 741.508 241.259 739.272 247.782C737.035 254.204 735.917 262.46 735.917 272.551L714.11 263.224C714.11 249.158 716.804 236.417 722.192 225.001C727.682 213.586 735.713 204.514 746.286 197.787C756.86 190.958 769.873 187.543 785.325 187.543C797.525 187.543 807.59 189.582 815.52 193.659C823.449 197.736 829.753 202.934 834.429 209.254C839.106 215.573 842.562 222.3 844.799 229.435C847.036 236.57 848.459 243.348 849.069 249.77C849.78 256.089 850.136 261.237 850.136 265.212V357.405H812.927ZM698.708 357.405V137.242H731.494V253.133H735.917V357.405H698.708Z" fill="black"/>
<path d="M948.032 361.992C931.359 361.992 916.719 358.373 904.113 351.136C891.506 343.9 881.645 333.86 874.529 321.017C867.514 308.174 864.006 293.395 864.006 276.679C864.006 258.637 867.463 242.992 874.376 229.741C881.289 216.389 890.896 206.043 903.198 198.704C915.499 191.366 929.732 187.696 945.897 187.696C962.976 187.696 977.463 191.722 989.358 199.775C1001.35 207.725 1010.25 218.988 1016.04 233.563C1021.84 248.139 1024.03 265.314 1022.6 285.088H986.156V271.633C986.054 253.694 982.902 240.596 976.701 232.34C970.499 224.084 960.74 219.956 947.422 219.956C932.375 219.956 921.192 224.645 913.872 234.022C906.553 243.297 902.893 256.905 902.893 274.844C902.893 291.56 906.553 304.505 913.872 313.678C921.192 322.852 931.867 327.438 945.897 327.438C954.945 327.438 962.722 325.451 969.229 321.476C975.837 317.398 980.92 311.538 984.478 303.893L1020.77 314.901C1014.47 329.783 1004.71 341.351 991.493 349.607C978.378 357.864 963.891 361.992 948.032 361.992ZM891.303 285.088V257.261H1004.61V285.088H891.303Z" fill="black"/>
<path d="M1136.38 357.405C1125.51 359.443 1114.83 360.31 1104.36 360.004C1093.99 359.8 1084.69 357.915 1076.45 354.347C1068.22 350.678 1061.97 344.919 1057.7 337.07C1053.93 329.936 1051.95 322.648 1051.75 315.207C1051.54 307.766 1051.44 299.357 1051.44 289.98V146.416H1088.04V287.84C1088.04 294.465 1088.09 300.275 1088.19 305.269C1088.4 310.264 1089.47 314.341 1091.4 317.5C1095.06 323.616 1100.9 327.031 1108.93 327.744C1116.97 328.458 1126.12 328.05 1136.38 326.521V357.405ZM1021.55 221.179V192.283H1136.38V221.179H1021.55Z" fill="black"/>
<path d="M1201.08 361.992C1189.18 361.992 1179.12 359.749 1170.88 355.264C1162.65 350.678 1156.4 344.613 1152.13 337.07C1147.96 329.528 1145.87 321.221 1145.87 312.149C1145.87 304.199 1147.2 297.064 1149.84 290.745C1152.48 284.323 1156.55 278.819 1162.04 274.232C1167.53 269.544 1174.64 265.721 1183.39 262.766C1190 260.625 1197.72 258.688 1206.57 256.956C1215.51 255.223 1225.17 253.643 1235.54 252.216C1246.01 250.687 1256.94 249.056 1268.33 247.324L1255.21 254.815C1255.32 243.399 1252.77 234.99 1247.59 229.588C1242.4 224.186 1233.66 221.485 1221.36 221.485C1213.94 221.485 1206.77 223.218 1199.86 226.683C1192.94 230.149 1188.12 236.112 1185.37 244.572L1151.82 234.022C1155.89 220.058 1163.61 208.846 1175 200.386C1186.49 191.926 1201.94 187.696 1221.36 187.696C1236 187.696 1248.86 190.091 1259.94 194.882C1271.12 199.673 1279.41 207.521 1284.8 218.427C1287.75 224.237 1289.53 230.2 1290.14 236.315C1290.74 242.329 1291.05 248.903 1291.05 256.038V357.405H1258.87V321.628L1264.21 327.438C1256.79 339.364 1248.1 348.13 1238.13 353.736C1228.27 359.24 1215.92 361.992 1201.08 361.992ZM1208.4 332.637C1216.73 332.637 1223.85 331.159 1229.75 328.203C1235.64 325.247 1240.32 321.628 1243.78 317.348C1247.33 313.067 1249.72 309.04 1250.94 305.269C1252.88 300.581 1253.94 295.229 1254.15 289.216C1254.45 283.1 1254.6 278.157 1254.6 274.385L1265.89 277.749C1254.81 279.482 1245.3 281.01 1237.37 282.336C1229.44 283.661 1222.63 284.935 1216.94 286.158C1211.24 287.279 1206.21 288.553 1201.84 289.98C1197.57 291.509 1193.96 293.293 1191.01 295.331C1188.06 297.37 1185.78 299.714 1184.15 302.364C1182.63 305.014 1181.86 308.123 1181.86 311.691C1181.86 315.768 1182.88 319.386 1184.91 322.546C1186.95 325.604 1189.89 328.05 1193.76 329.885C1197.72 331.719 1202.6 332.637 1208.4 332.637Z" fill="black"/>
<path fill-rule="evenodd" clip-rule="evenodd" d="M388.498 313.041C416.831 253.378 397.584 183.433 349.545 137.614C302.721 92.9544 233.634 81.0752 176.241 110.627C116.554 141.359 79.3702 204.937 90.4202 270.995C101.756 338.762 156.649 390.906 224.725 400.507C292.532 410.071 359.151 374.837 388.498 313.041ZM351.784 135.266C400.636 181.86 420.474 253.271 391.429 314.433C361.464 377.531 293.46 413.479 224.272 403.72C154.834 393.927 98.7961 340.734 87.2201 271.531C75.9049 203.887 113.997 139.026 174.756 107.742C233.452 77.5194 304.022 89.7113 351.784 135.266Z" fill="black"/>
<path fill-rule="evenodd" clip-rule="evenodd" d="M326.867 164.004C315.07 151.717 302.43 140.159 286.901 133.961C271.184 127.688 253.826 126.384 236.846 128.04C220.139 129.67 203.999 135.055 189.47 143.498C175.256 151.757 164.173 164 153.257 176.676C151.478 178.741 149.669 180.777 147.864 182.809C143.897 187.276 139.948 191.722 136.38 196.408C131.218 203.19 126.981 210.325 124.878 218.397C121.142 232.732 124.512 247.652 127.903 262.667C128.36 264.689 128.817 266.713 129.257 268.738C132.841 285.217 136.729 301.543 145.985 315.216C155.249 328.898 168.44 339.446 182.821 347.92C196.915 356.224 212.665 360.671 228.875 363.98C230.644 364.341 232.413 364.713 234.18 365.084C249.446 368.293 264.631 371.484 279.188 367.666C295.5 363.387 308.788 351.669 321.36 339.75C333.386 328.349 343.168 314.978 350.374 300.056C357.584 285.128 362.645 269.26 363.366 252.824C364.09 236.308 360.879 219.83 354.584 204.495C348.328 189.256 338.373 175.987 326.867 164.004ZM288.006 131.181C304.171 137.633 317.185 149.602 329.025 161.933C340.688 174.079 350.906 187.659 357.353 203.363C363.797 219.062 367.102 235.971 366.357 252.962C365.613 269.922 360.396 286.195 353.071 301.362C345.707 316.611 335.709 330.276 323.422 341.925C310.895 353.801 297.1 366.063 279.953 370.561C264.666 374.572 248.75 371.216 233.592 368.021C231.811 367.645 230.041 367.272 228.283 366.913C211.958 363.581 195.825 359.053 181.306 350.498C166.699 341.892 153.107 331.069 143.507 316.89C133.882 302.673 129.904 285.795 126.332 269.368C125.899 267.379 125.445 265.372 124.987 263.351C121.604 248.424 118.048 232.73 121.981 217.636C124.223 209.032 128.711 201.536 133.997 194.592C137.634 189.814 141.709 185.225 145.715 180.716C147.501 178.705 149.273 176.709 150.986 174.72C161.889 162.058 173.263 149.45 187.962 140.909C202.843 132.261 219.394 126.734 236.549 125.06C253.853 123.372 271.722 124.682 288.006 131.181Z" fill="black"/>
<path fill-rule="evenodd" clip-rule="evenodd" d="M112.82 210.43C106.35 229.293 101.09 248.642 102.958 268.128C104.848 287.849 112.789 306.618 123.61 323.406C134.257 339.924 148.509 353.84 165.082 364.442C181.295 374.813 199.976 379.792 219.02 384.364C222.123 385.109 225.211 385.901 228.293 386.691C235.069 388.429 241.812 390.158 248.602 391.361C258.428 393.102 268.124 393.689 277.653 391.554C294.578 387.763 308.303 376.263 322.116 364.688C323.977 363.13 325.839 361.569 327.711 360.026C342.946 347.468 357.858 334.674 367.131 317.713C376.412 300.74 380.325 281.358 381.441 261.847C382.535 242.727 378.727 223.95 373.487 205.302C372.915 203.268 372.355 201.228 371.795 199.189C366.956 181.578 362.143 164.062 350.369 150.954C337.176 136.266 317.86 128.711 298.717 122.01C280.406 115.599 261.247 112.579 241.853 113.072C222.451 113.565 203.221 116.797 185.726 124.852C168.145 132.946 152.712 145.116 140.121 159.885C127.609 174.561 119.13 192.032 112.82 210.43ZM99.4717 268.467C97.5274 248.183 103.015 228.224 109.508 209.293C115.904 190.645 124.566 172.733 137.46 157.608C150.349 142.49 166.181 129.991 184.267 121.664C202.321 113.353 222.055 110.066 241.768 109.565C261.587 109.061 281.167 112.148 299.876 118.698C318.951 125.376 339.105 133.166 352.974 148.606C365.338 162.371 370.372 180.737 375.166 198.227C375.73 200.283 376.29 202.326 376.858 204.348C382.135 223.127 386.064 242.346 384.938 262.044C383.804 281.86 379.819 301.807 370.202 319.396C360.559 337.032 345.12 350.216 329.934 362.734C328.095 364.25 326.25 365.798 324.392 367.358C310.665 378.876 296.233 390.986 278.414 394.978C268.256 397.253 258.048 396.598 247.988 394.815C241.066 393.589 234.106 391.805 227.266 390.051C224.216 389.269 221.189 388.493 218.2 387.776C199.179 383.209 179.961 378.124 163.195 367.399C146.221 356.541 131.6 342.273 120.667 325.311C109.64 308.202 101.43 288.9 99.4717 268.467Z" fill="black"/>
<path fill-rule="evenodd" clip-rule="evenodd" d="M299.807 206.18C298.048 204.733 296.261 203.257 294.566 201.706C292.904 200.184 291.304 198.574 289.733 196.989L289.61 196.864C288.073 195.314 286.563 193.79 285.007 192.351C281.811 189.394 278.507 186.874 274.645 185.366C270.814 183.87 266.713 183.587 262.367 183.655C260.879 183.679 259.333 183.746 257.761 183.815C254.861 183.941 251.872 184.071 248.995 183.937C246.105 183.802 243.14 183.422 240.255 183.052C238.669 182.849 237.106 182.649 235.594 182.494C231.229 182.048 227.048 181.942 222.999 182.968C214.56 185.107 206.88 190.014 200.481 196.103C195.276 201.056 191.939 207.435 188.473 214.058C187.801 215.343 187.123 216.637 186.427 217.932C185.582 219.502 184.722 221.023 183.871 222.53C182.535 224.893 181.219 227.22 180.014 229.645C178.071 233.554 176.536 237.496 175.937 241.688C174.72 250.205 176.811 258.895 179.302 267.516C181.723 275.899 185.166 283.9 190.203 290.919C195.271 297.98 201.421 304.244 208.782 308.658C214.885 312.317 221.814 313.917 229.008 315.579C230.331 315.885 231.663 316.193 233 316.516C234.949 316.986 236.899 317.53 238.823 318.067C239.045 318.129 239.267 318.19 239.488 318.252C241.638 318.851 243.757 319.43 245.872 319.901C250.102 320.843 254.217 321.326 258.291 320.662C262.372 319.997 266.141 318.274 269.841 316.068C272.29 314.607 274.629 312.988 277.003 311.346C278.26 310.476 279.526 309.6 280.823 308.737C287.819 304.083 294.333 299.013 299.915 292.867C305.81 286.375 311.547 279.896 314.302 271.979C316.704 265.075 316.444 257.667 316.175 249.991C316.133 248.8 316.091 247.603 316.059 246.4C316.01 244.6 316.006 242.835 316.001 241.086C315.994 238.318 315.987 235.593 315.806 232.841C315.517 228.428 314.785 224.245 312.95 220.425C311.125 216.625 308.272 213.508 304.968 210.541C303.395 209.129 301.743 207.771 300.061 206.388L299.807 206.18ZM306.952 208.331C310.373 211.402 313.559 214.831 315.633 219.148C317.701 223.455 318.476 228.065 318.778 232.661C318.963 235.476 318.972 238.403 318.98 241.261C318.986 242.991 318.991 244.695 319.035 246.335C319.066 247.49 319.108 248.659 319.151 249.837C319.426 257.469 319.715 265.498 317.115 272.97C314.131 281.546 307.959 288.449 302.124 294.874C296.32 301.266 289.59 306.489 282.481 311.218C281.281 312.016 280.062 312.86 278.826 313.715C276.397 315.395 273.905 317.119 271.376 318.627C267.515 320.929 263.381 322.852 258.785 323.601C254.175 324.352 249.635 323.786 245.239 322.807C243.039 322.317 240.852 321.718 238.703 321.12C238.482 321.058 238.261 320.997 238.04 320.935C236.109 320.397 234.21 319.867 232.315 319.41C231.042 319.102 229.752 318.805 228.453 318.506C221.268 316.852 213.806 315.133 207.261 311.209C199.462 306.533 193.027 299.948 187.787 292.647C182.498 285.278 178.929 276.942 176.441 268.329C173.951 259.709 171.673 250.465 172.989 241.253C173.651 236.62 175.333 232.357 177.346 228.308C178.574 225.838 179.972 223.362 181.345 220.931C182.189 219.437 183.023 217.96 183.803 216.511C184.463 215.285 185.115 214.036 185.772 212.778C189.231 206.155 192.83 199.264 198.422 193.942C205.081 187.605 213.194 182.378 222.253 180.082C226.81 178.927 231.404 179.075 235.882 179.533C237.562 179.704 239.197 179.915 240.812 180.122C243.601 180.481 246.33 180.832 249.118 180.962C251.881 181.092 254.607 180.971 257.401 180.848C259.006 180.777 260.634 180.705 262.305 180.678C266.772 180.608 271.339 180.885 275.715 182.593C280.087 184.3 283.714 187.109 287.024 190.17C288.628 191.655 290.179 193.219 291.702 194.756L291.843 194.898C293.42 196.49 294.971 198.049 296.571 199.514C298.199 201.005 299.927 202.433 301.692 203.884C301.781 203.957 301.871 204.031 301.96 204.105C303.629 205.477 305.328 206.873 306.952 208.331Z" fill="black"/>
<path fill-rule="evenodd" clip-rule="evenodd" d="M230.31 168.949C225.167 168.438 220.255 168.415 215.6 170.019C207.005 172.98 200.529 179.986 194.015 187.034C193.346 187.757 192.677 188.481 192.005 189.201C185.252 196.438 179.936 204.731 175.157 213.517C174.906 213.978 174.656 214.438 174.405 214.897C169.715 223.5 165.105 231.957 163.603 241.347C161.98 251.494 162.799 262.014 165.768 271.87C168.71 281.639 174.184 290.491 180.804 298.37C187.227 306.014 195.523 311.61 204.004 317.293C205.773 318.478 207.484 319.692 209.184 320.897C211.742 322.711 214.273 324.507 216.932 326.156C221.292 328.861 225.758 331.009 230.643 331.838C235.501 332.662 240.369 331.98 245.364 330.792C247.489 330.286 249.611 329.696 251.761 329.098C252.14 328.993 252.52 328.887 252.9 328.782C255.43 328.082 257.996 327.392 260.578 326.863C263.122 326.342 265.698 325.943 268.245 325.559C268.52 325.518 268.794 325.477 269.068 325.436C271.344 325.095 273.593 324.758 275.813 324.346C280.785 323.424 285.509 322.144 289.777 319.703C297.982 315.008 303.893 307.289 309.869 299.484C310.223 299.021 310.577 298.559 310.932 298.096C311.369 297.526 311.808 296.958 312.246 296.39C318.203 288.663 324.089 281.028 326.456 271.93C327.709 267.114 327.734 262.152 327.321 257.052C327.114 254.501 326.799 251.937 326.48 249.342L326.464 249.215C326.15 246.671 325.833 244.097 325.618 241.527C325.399 238.909 325.289 236.267 325.18 233.656L325.179 233.625C325.069 230.995 324.96 228.396 324.744 225.831C324.314 220.7 323.463 215.787 321.388 211.24C317.172 202.001 309.294 194.983 301.319 188.165C293.511 181.49 285.3 175.292 275.759 172.259C271.122 170.784 266.291 170.459 261.295 170.471C259.419 170.476 257.489 170.529 255.538 170.584C252.385 170.671 249.177 170.761 246.049 170.646C242.73 170.525 239.306 170.074 235.959 169.633C234.039 169.38 232.144 169.13 230.31 168.949ZM236.489 167.14C239.733 167.569 242.915 167.991 246.141 168.109C249.217 168.221 252.248 168.136 255.318 168.049C257.285 167.993 259.268 167.937 261.289 167.932C266.377 167.92 271.515 168.246 276.522 169.838C286.577 173.035 295.114 179.526 302.958 186.231C310.882 193.005 319.204 200.358 323.687 210.182C325.937 215.115 326.823 220.362 327.264 225.618C327.485 228.245 327.595 230.897 327.705 233.518L327.705 233.523C327.815 236.152 327.924 238.749 328.138 241.315C328.348 243.834 328.66 246.365 328.976 248.926L328.989 249.03C329.308 251.617 329.629 254.234 329.841 256.846C330.264 262.069 330.259 267.357 328.902 272.572C326.399 282.196 320.198 290.23 314.309 297.862C313.848 298.459 313.389 299.054 312.934 299.646C312.555 300.141 312.175 300.637 311.794 301.136C305.898 308.842 299.694 316.951 291.028 321.909C286.4 324.557 281.354 325.9 276.272 326.843C274.007 327.263 271.713 327.607 269.443 327.947C269.168 327.988 268.894 328.029 268.62 328.071C266.072 328.454 263.555 328.845 261.084 329.351C258.593 329.861 256.098 330.53 253.572 331.23C253.197 331.334 252.821 331.438 252.444 331.543C250.296 332.141 248.122 332.745 245.947 333.262C240.832 334.479 235.574 335.249 230.221 334.341C224.881 333.435 220.095 331.103 215.603 328.316C212.909 326.645 210.232 324.749 207.604 322.886C205.913 321.689 204.243 320.505 202.601 319.405C194.167 313.754 185.563 307.971 178.872 300.008C172.101 291.95 166.418 282.797 163.348 272.605C160.274 262.4 159.419 251.491 161.106 240.944C162.68 231.107 167.49 222.289 172.128 213.785C172.399 213.289 172.669 212.794 172.938 212.3C177.77 203.417 183.204 194.92 190.16 187.465C190.835 186.742 191.513 186.008 192.196 185.267C198.625 178.299 205.545 170.799 214.779 167.617C219.953 165.834 225.301 165.9 230.558 166.422C232.572 166.621 234.541 166.882 236.489 167.14Z" fill="black"/>
<path fill-rule="evenodd" clip-rule="evenodd" d="M349.034 287.557C353.041 281.974 356.335 276.333 357.58 269.903C359.878 258.032 356.102 245.909 352.304 233.713C351.914 232.461 351.524 231.208 351.14 229.955C347.282 217.358 341.251 205.713 334.294 194.357C333.929 193.761 333.565 193.166 333.202 192.572C326.397 181.442 319.707 170.499 309.874 162.516C299.248 153.888 286.568 147.826 273.225 144.681C260 141.564 246.149 141.972 232.658 144.349C219.57 146.655 207.599 152.482 195.404 158.465C192.861 159.713 190.323 160.875 187.802 162.03C184.009 163.768 180.254 165.487 176.584 167.451C170.565 170.671 165.117 174.384 160.914 179.457C156.733 184.503 154.283 190.564 152.332 197.108C151.502 199.891 150.772 202.729 150.032 205.603C149.901 206.11 149.771 206.617 149.639 207.126C148.765 210.506 147.854 213.92 146.748 217.246C145.657 220.523 144.405 223.755 143.153 226.944C143.018 227.288 142.883 227.632 142.748 227.975C141.629 230.823 140.523 233.637 139.521 236.468C137.279 242.809 135.614 249.101 135.593 255.642C135.552 268.219 140.527 280.166 145.557 292.247C145.855 292.963 146.153 293.679 146.45 294.396C146.816 295.279 147.181 296.162 147.545 297.045C152.497 309.052 157.391 320.916 166.311 329.7C171.034 334.351 176.741 337.685 182.899 340.605C185.979 342.066 189.146 343.412 192.352 344.771L192.509 344.838C195.652 346.171 198.833 347.52 201.94 348.984C205.105 350.476 208.226 352.108 211.31 353.721L211.347 353.741C214.454 355.366 217.524 356.971 220.627 358.431C226.832 361.352 233.064 363.644 239.689 364.283C253.15 365.582 266.484 361.182 279.652 356.538C292.543 351.991 305.152 346.662 314.995 337.695C319.779 333.337 323.366 327.99 326.674 322.228C327.917 320.065 329.138 317.806 330.373 315.522C332.368 311.833 334.398 308.079 336.61 304.553C338.957 300.812 341.754 297.168 344.488 293.607C346.056 291.564 347.604 289.548 349.034 287.557ZM347.011 295.877C344.359 299.327 341.757 302.712 339.476 306.349C337.301 309.816 335.384 313.364 333.443 316.958C332.2 319.26 330.946 321.581 329.607 323.912C326.238 329.78 322.446 335.48 317.28 340.186C306.906 349.637 293.743 355.145 280.792 359.713C267.71 364.328 253.694 369.016 239.381 367.635C232.194 366.942 225.553 364.467 219.197 361.475C216.019 359.979 212.886 358.34 209.79 356.721L209.785 356.718C206.679 355.094 203.611 353.489 200.509 352.027C197.463 350.592 194.335 349.265 191.172 347.924L191.043 347.869C187.846 346.513 184.615 345.141 181.461 343.645C175.154 340.654 169.058 337.126 163.944 332.09C154.508 322.798 149.362 310.306 144.474 298.44C144.092 297.512 143.711 296.588 143.33 295.669C143.013 294.903 142.692 294.135 142.371 293.364C137.401 281.441 132.173 268.896 132.216 255.614C132.239 248.521 134.044 241.814 136.336 235.334C137.357 232.445 138.486 229.575 139.603 226.734C139.738 226.39 139.873 226.046 140.008 225.703C141.26 222.514 142.482 219.355 143.542 216.171C144.609 212.963 145.496 209.645 146.369 206.27C146.498 205.768 146.628 205.265 146.757 204.762C147.497 201.889 148.245 198.983 149.094 196.134C151.092 189.432 153.7 182.864 158.306 177.305C162.902 171.757 168.775 167.799 174.976 164.482C178.695 162.492 182.663 160.672 186.559 158.885C189.064 157.736 191.54 156.601 193.901 155.442C206.027 149.493 218.419 143.435 232.054 141.033C245.851 138.602 260.188 138.152 273.986 141.404C287.802 144.66 300.954 150.942 311.999 159.909C322.3 168.272 329.273 179.684 335.998 190.69C336.391 191.332 336.782 191.973 337.173 192.612C344.207 204.093 350.396 216.01 354.37 228.986C354.755 230.244 355.152 231.514 355.552 232.794C359.315 244.839 363.365 257.804 360.896 270.557C359.512 277.704 355.88 283.819 351.783 289.526C350.214 291.712 348.604 293.806 347.011 295.877Z" fill="black"/>
<path fill-rule="evenodd" clip-rule="evenodd" d="M299.327 168.421C295.368 163.751 291.207 159.684 285.928 157.208C276.182 152.637 264.92 153.241 253.593 153.848C252.43 153.91 251.266 153.973 250.103 154.029C238.417 154.6 227.087 157.25 215.809 160.761C215.218 160.945 214.627 161.128 214.037 161.311C202.986 164.74 192.121 168.11 183.138 174.833C173.43 182.098 165.495 191.691 159.934 202.492C154.423 213.198 151.819 225.212 150.989 237.346C150.183 249.118 152.653 260.697 155.209 272.503C155.742 274.965 156.203 277.404 156.661 279.826C157.35 283.472 158.031 287.08 158.941 290.669C160.433 296.554 162.472 302.055 165.95 306.781C169.409 311.483 174.113 314.916 179.339 318.024C181.562 319.347 183.853 320.595 186.174 321.859C186.583 322.082 186.993 322.306 187.403 322.53C190.131 324.021 192.881 325.55 195.513 327.229C198.106 328.884 200.626 330.667 203.109 332.441C203.377 332.633 203.645 332.824 203.912 333.015C206.129 334.601 208.32 336.168 210.547 337.648C215.536 340.963 220.608 343.771 226.244 345.217C237.081 347.998 248.446 346.324 259.937 344.631C260.618 344.531 261.299 344.431 261.981 344.331C262.82 344.209 263.66 344.088 264.499 343.967C275.91 342.325 287.186 340.703 296.666 334.94C301.684 331.889 305.777 327.705 309.611 323.04C311.527 320.708 313.364 318.275 315.221 315.811L315.312 315.691C317.133 313.275 318.975 310.832 320.901 308.476C322.863 306.077 324.936 303.746 326.986 301.444L327.011 301.415C329.075 299.095 331.115 296.803 333.036 294.45C336.88 289.746 340.187 284.88 342.152 279.316C346.145 268.01 345.198 255.569 344.004 243.218C342.834 231.127 340.93 219.107 335.299 208.675C332.561 203.604 328.716 199.348 324.454 195.242C322.853 193.7 321.166 192.155 319.46 190.593C316.705 188.07 313.9 185.502 311.332 182.828C308.607 179.991 306.062 176.787 303.575 173.656C302.148 171.859 300.739 170.086 299.327 168.421ZM306.071 171.979C308.48 175.016 310.844 177.995 313.493 180.753C316.018 183.383 318.669 185.807 321.354 188.263C323.073 189.837 324.807 191.423 326.532 193.085C330.873 197.267 334.979 201.776 337.935 207.251C343.87 218.246 345.811 230.782 346.985 242.929C348.172 255.201 349.223 268.292 344.977 280.313C342.845 286.349 339.293 291.527 335.356 296.346C333.388 298.755 331.306 301.095 329.248 303.407L329.245 303.41C327.182 305.729 325.142 308.021 323.22 310.373C321.331 312.682 319.52 315.085 317.688 317.515L317.613 317.615C315.762 320.071 313.888 322.553 311.925 324.942C307.999 329.719 303.656 334.197 298.221 337.5C288.193 343.596 276.323 345.298 265.047 346.916C264.165 347.042 263.287 347.168 262.413 347.295C261.685 347.402 260.954 347.51 260.22 347.618C248.878 349.293 236.943 351.056 225.499 348.119C219.386 346.55 213.988 343.531 208.889 340.143C206.616 338.633 204.382 337.035 202.171 335.453C201.903 335.261 201.635 335.07 201.368 334.879C198.885 333.105 196.422 331.362 193.902 329.755C191.363 328.135 188.691 326.647 185.967 325.159C185.563 324.938 185.157 324.717 184.75 324.495C182.431 323.231 180.084 321.953 177.808 320.599C172.455 317.416 167.348 313.737 163.537 308.557C159.734 303.388 157.574 297.468 156.037 291.405C155.115 287.768 154.393 283.955 153.684 280.21C153.227 277.802 152.777 275.423 152.282 273.137C149.74 261.398 147.161 249.406 148 237.142C148.849 224.733 151.521 212.291 157.271 201.121C163.028 189.937 171.253 179.985 181.343 172.434C190.754 165.391 202.084 161.88 213.011 158.493C213.648 158.295 214.284 158.098 214.919 157.9C226.321 154.351 237.919 151.625 249.957 151.037C251.124 150.98 252.304 150.916 253.494 150.851C264.684 150.241 276.729 149.585 287.2 154.496C293.067 157.248 297.566 161.71 301.612 166.484C303.163 168.312 304.625 170.156 306.071 171.979Z" fill="black"/>
<path fill-rule="evenodd" clip-rule="evenodd" d="M337.935 109.381C331.095 101.314 324.088 94.516 315.323 90.404C298.866 82.6837 279.81 83.6948 259.935 84.7494C257.932 84.8556 255.921 84.9623 253.903 85.0606C233.783 86.0405 214.224 90.6024 194.647 96.6931C193.653 97.0023 192.661 97.3101 191.671 97.6172C172.294 103.628 153.69 109.399 138.343 120.883C121.698 133.338 108.077 149.8 98.5294 168.352C89.099 186.675 84.6095 207.309 83.1793 228.267C81.8034 248.429 86.0324 268.316 90.505 288.957C91.4643 293.384 92.2757 297.681 93.075 301.913C94.2616 308.197 95.4217 314.34 97.0005 320.565C99.5702 330.697 103.037 339.976 108.86 347.889C114.629 355.729 122.531 361.533 131.553 366.9C135.391 369.183 139.344 371.337 143.393 373.545C144.109 373.934 144.827 374.326 145.548 374.72C150.309 377.322 155.165 380.022 159.826 382.996C164.404 385.918 168.843 389.06 173.174 392.155C173.642 392.49 174.108 392.823 174.573 393.156C178.445 395.926 182.234 398.636 186.085 401.195C194.706 406.924 203.306 411.663 212.778 414.095C231.225 418.832 250.623 415.981 270.793 413.016C271.935 412.848 273.079 412.68 274.226 412.513C275.659 412.304 277.089 412.098 278.515 411.893C298.532 409.011 317.755 406.245 333.879 396.445C342.321 391.314 349.272 384.235 355.888 376.184C359.196 372.159 362.371 367.953 365.613 363.652L365.782 363.427C368.95 359.225 372.185 354.933 375.572 350.79C379.023 346.569 382.666 342.475 386.23 338.47L386.287 338.406C389.893 334.354 393.417 330.391 396.734 326.331C403.367 318.211 408.951 309.959 412.252 300.607C419.024 281.425 417.446 260.213 415.354 238.611C413.315 217.563 410.019 196.987 400.422 179.212C395.811 170.673 389.299 163.44 381.922 156.334C379.222 153.732 376.317 151.071 373.354 148.357C368.496 143.907 363.484 139.316 358.971 134.617C354.158 129.607 349.577 123.842 345.182 118.313C342.71 115.203 340.297 112.167 337.935 109.381ZM353.277 112.881C357.418 118.104 361.41 123.139 365.975 127.891C370.349 132.446 374.86 136.571 379.489 140.803C382.497 143.554 385.556 146.351 388.659 149.341C396.29 156.693 403.649 164.749 408.971 174.606C419.554 194.207 422.97 216.46 425.026 237.688C427.093 259.033 429.007 282.352 421.416 303.854C417.575 314.734 411.199 323.996 404.263 332.485C400.799 336.726 397.14 340.837 393.561 344.86L393.551 344.871C389.945 348.923 386.418 352.887 383.098 356.947C379.834 360.94 376.697 365.101 373.493 369.352L373.376 369.508C370.151 373.785 366.857 378.152 363.399 382.359C356.484 390.774 348.723 398.802 338.935 404.751C321.035 415.63 299.883 418.656 280.307 421.456C278.741 421.68 277.185 421.903 275.642 422.128C274.342 422.317 273.035 422.511 271.72 422.705C252.038 425.612 230.793 428.75 210.373 423.506C199.354 420.677 189.692 415.251 180.715 409.286C176.715 406.627 172.784 403.816 168.93 401.058C168.463 400.724 167.997 400.391 167.532 400.058C163.201 396.963 158.947 393.955 154.607 391.186C150.248 388.404 145.646 385.84 140.897 383.245C140.197 382.862 139.492 382.478 138.784 382.093C134.74 379.889 130.603 377.634 126.594 375.249C117.163 369.639 107.95 363.036 101.036 353.64C94.1573 344.293 90.2975 333.65 87.5814 322.941C85.9633 316.561 84.6706 309.75 83.417 303.146C82.6226 298.961 81.8438 294.859 81.0081 291.001C76.5822 270.576 71.9995 249.35 73.4844 227.591C74.9755 205.741 79.6834 183.722 89.8878 163.895C100.074 144.104 114.632 126.48 132.514 113.1C149.249 100.578 169.358 94.3503 188.331 88.4742C189.475 88.1201 190.614 87.7673 191.748 87.4145C211.728 81.1985 232.158 76.3905 253.417 75.3552C255.45 75.2561 257.515 75.1431 259.605 75.0287C279.029 73.9655 300.628 72.7832 319.44 81.6081C330.117 86.617 338.217 94.6992 345.343 103.103C348.154 106.419 350.744 109.685 353.277 112.881Z" fill="black"/>
</svg>
