<?xml version="1.0" encoding="UTF-8"?>
<!--Generator: Apple Native CoreSVG 175.5-->
<!DOCTYPE svg
PUBLIC "-//W3C//DTD SVG 1.1//EN"
       "http://www.w3.org/Graphics/SVG/1.1/DTD/svg11.dtd">
<svg version="1.1" xmlns="http://www.w3.org/2000/svg" xmlns:xlink="http://www.w3.org/1999/xlink" width="22.6367" height="22.041">
 <g>
  <rect height="22.041" opacity="0" width="22.6367" x="0" y="0"/>
  <path d="M0.683594 1.45508L21.9629 1.45508C22.3438 1.45508 22.6367 1.12305 22.6367 0.742188C22.6367 0.361328 22.3438 0.0195312 21.9629 0.0195312L0.683594 0.0195312C0.292969 0.0195312 0 0.361328 0 0.742188C0 1.12305 0.292969 1.45508 0.683594 1.45508ZM4.78516 22.041L8.18359 22.041C9.60938 22.041 10.3809 21.2598 10.3809 19.8047L10.3809 5.51758C10.3809 4.07227 9.60938 3.28125 8.18359 3.28125L4.78516 3.28125C3.35938 3.28125 2.58789 4.07227 2.58789 5.51758L2.58789 19.8047C2.58789 21.2598 3.35938 22.041 4.78516 22.041ZM4.87305 20.5664C4.3457 20.5664 4.0625 20.2832 4.0625 19.7754L4.0625 5.54688C4.0625 5.04883 4.3457 4.75586 4.87305 4.75586L8.0957 4.75586C8.62305 4.75586 8.90625 5.04883 8.90625 5.54688L8.90625 19.7754C8.90625 20.2832 8.62305 20.5664 8.0957 20.5664ZM14.4727 15.127L17.8711 15.127C19.2871 15.127 20.0684 14.3457 20.0684 12.8906L20.0684 5.51758C20.0684 4.07227 19.2871 3.28125 17.8711 3.28125L14.4727 3.28125C13.0469 3.28125 12.2656 4.07227 12.2656 5.51758L12.2656 12.8906C12.2656 14.3457 13.0469 15.127 14.4727 15.127ZM14.5508 13.6523C14.0332 13.6523 13.7402 13.3691 13.7402 12.8613L13.7402 5.54688C13.7402 5.04883 14.0332 4.75586 14.5508 4.75586L17.7832 4.75586C18.3008 4.75586 18.5938 5.04883 18.5938 5.54688L18.5938 12.8613C18.5938 13.3691 18.3008 13.6523 17.7832 13.6523Z" fill="#ffffff" fill-opacity="0.85"/>
 </g>
</svg>
