<?xml version="1.0" encoding="UTF-8"?>
<!--Generator: Apple Native CoreSVG 175.5-->
<!DOCTYPE svg
PUBLIC "-//W3C//DTD SVG 1.1//EN"
       "http://www.w3.org/Graphics/SVG/1.1/DTD/svg11.dtd">
<svg version="1.1" xmlns="http://www.w3.org/2000/svg" xmlns:xlink="http://www.w3.org/1999/xlink" width="18.7598" height="22.666">
 <g>
  <rect height="22.666" opacity="0" width="18.7598" x="0" y="0"/>
  <path d="M8.66211 3.125L10.0977 3.125L10.0977 0.673828C10.0977 0.292969 9.75586 0 9.375 0C8.99414 0 8.66211 0.292969 8.66211 0.673828ZM5.69336 10.3809L13.0664 10.3809C14.5117 10.3809 15.3027 9.60938 15.3027 8.18359L15.3027 4.78516C15.3027 3.35938 14.5117 2.58789 13.0664 2.58789L5.69336 2.58789C4.23828 2.58789 3.45703 3.35938 3.45703 4.78516L3.45703 8.18359C3.45703 9.60938 4.23828 10.3809 5.69336 10.3809ZM5.72266 8.90625C5.21484 8.90625 4.93164 8.62305 4.93164 8.0957L4.93164 4.86328C4.93164 4.3457 5.21484 4.0625 5.72266 4.0625L13.0371 4.0625C13.5449 4.0625 13.8281 4.3457 13.8281 4.86328L13.8281 8.0957C13.8281 8.62305 13.5449 8.90625 13.0371 8.90625ZM8.66211 13.1152L10.0977 13.1152L10.0977 9.7168L8.66211 9.7168ZM2.23633 20.0586L16.5234 20.0586C17.9688 20.0586 18.7598 19.2871 18.7598 17.8613L18.7598 14.4629C18.7598 13.0469 17.9688 12.2656 16.5234 12.2656L2.23633 12.2656C0.78125 12.2656 0 13.0469 0 14.4629L0 17.8613C0 19.2871 0.78125 20.0586 2.23633 20.0586ZM2.26562 18.584C1.75781 18.584 1.47461 18.3008 1.47461 17.7832L1.47461 14.5508C1.47461 14.0234 1.75781 13.7402 2.26562 13.7402L16.4941 13.7402C17.002 13.7402 17.2852 14.0234 17.2852 14.5508L17.2852 17.7832C17.2852 18.3008 17.002 18.584 16.4941 18.584ZM9.375 22.6367C9.75586 22.6367 10.0977 22.3438 10.0977 21.9629L10.0977 19.5215L8.66211 19.5215L8.66211 21.9629C8.66211 22.3438 8.99414 22.6367 9.375 22.6367Z" fill="#ffffff" fill-opacity="0.85"/>
 </g>
</svg>
