<?xml version="1.0" encoding="UTF-8"?>
<!--Generator: Apple Native CoreSVG 175.5-->
<!DOCTYPE svg
PUBLIC "-//W3C//DTD SVG 1.1//EN"
       "http://www.w3.org/Graphics/SVG/1.1/DTD/svg11.dtd">
<svg version="1.1" xmlns="http://www.w3.org/2000/svg" xmlns:xlink="http://www.w3.org/1999/xlink" width="22.6367" height="18.8184">
 <g>
  <rect height="18.8184" opacity="0" width="22.6367" x="0" y="0"/>
  <path d="M0.683594 10.1465L3.20312 10.1465L3.20312 8.71094L0.683594 8.71094C0.292969 8.71094 0 9.04297 0 9.42383C0 9.80469 0.292969 10.1465 0.683594 10.1465ZM4.78516 18.8184L8.18359 18.8184C9.60938 18.8184 10.3809 18.0176 10.3809 16.5625L10.3809 2.28516C10.3809 0.830078 9.60938 0.0488281 8.18359 0.0488281L4.78516 0.0488281C3.35938 0.0488281 2.58789 0.830078 2.58789 2.28516L2.58789 16.5625C2.58789 18.0176 3.35938 18.8184 4.78516 18.8184ZM4.87305 17.334C4.3457 17.334 4.0625 17.041 4.0625 16.543L4.0625 2.30469C4.0625 1.80664 4.3457 1.52344 4.87305 1.52344L8.0957 1.52344C8.62305 1.52344 8.90625 1.80664 8.90625 2.30469L8.90625 16.543C8.90625 17.041 8.62305 17.334 8.0957 17.334ZM9.58008 10.1465L13.0371 10.1465L13.0371 8.71094L9.58008 8.71094ZM14.4727 15.3418L17.8711 15.3418C19.2871 15.3418 20.0684 14.5605 20.0684 13.1055L20.0684 5.74219C20.0684 4.28711 19.2871 3.50586 17.8711 3.50586L14.4727 3.50586C13.0469 3.50586 12.2656 4.28711 12.2656 5.74219L12.2656 13.1055C12.2656 14.5605 13.0469 15.3418 14.4727 15.3418ZM14.5508 13.8672C14.0332 13.8672 13.7402 13.584 13.7402 13.0859L13.7402 5.77148C13.7402 5.26367 14.0332 4.98047 14.5508 4.98047L17.7832 4.98047C18.3008 4.98047 18.5938 5.26367 18.5938 5.77148L18.5938 13.0859C18.5938 13.584 18.3008 13.8672 17.7832 13.8672ZM19.4727 10.1465L21.9629 10.1465C22.3438 10.1465 22.6367 9.80469 22.6367 9.42383C22.6367 9.04297 22.3438 8.71094 21.9629 8.71094L19.4727 8.71094Z" fill="#ffffff" fill-opacity="0.85"/>
 </g>
</svg>
