<?xml version="1.0" encoding="UTF-8"?>
<!--Generator: Apple Native CoreSVG 175.5-->
<!DOCTYPE svg
PUBLIC "-//W3C//DTD SVG 1.1//EN"
       "http://www.w3.org/Graphics/SVG/1.1/DTD/svg11.dtd">
<svg version="1.1" xmlns="http://www.w3.org/2000/svg" xmlns:xlink="http://www.w3.org/1999/xlink" width="22.6367" height="22.041">
 <g>
  <rect height="22.041" opacity="0" width="22.6367" x="0" y="0"/>
  <path d="M4.78516 18.7793L8.18359 18.7793C9.60938 18.7793 10.3809 17.998 10.3809 16.543L10.3809 2.25586C10.3809 0.800781 9.60938 0.0195312 8.18359 0.0195312L4.78516 0.0195312C3.35938 0.0195312 2.58789 0.800781 2.58789 2.25586L2.58789 16.543C2.58789 17.998 3.35938 18.7793 4.78516 18.7793ZM4.87305 17.3047C4.3457 17.3047 4.0625 17.0215 4.0625 16.5137L4.0625 2.28516C4.0625 1.77734 4.3457 1.49414 4.87305 1.49414L8.0957 1.49414C8.62305 1.49414 8.90625 1.77734 8.90625 2.28516L8.90625 16.5137C8.90625 17.0215 8.62305 17.3047 8.0957 17.3047ZM14.4727 18.7793L17.8711 18.7793C19.2871 18.7793 20.0684 17.998 20.0684 16.543L20.0684 9.16992C20.0684 7.72461 19.2871 6.93359 17.8711 6.93359L14.4727 6.93359C13.0469 6.93359 12.2656 7.72461 12.2656 9.16992L12.2656 16.543C12.2656 17.998 13.0469 18.7793 14.4727 18.7793ZM14.5508 17.3047C14.0332 17.3047 13.7402 17.0215 13.7402 16.5137L13.7402 9.19922C13.7402 8.69141 14.0332 8.4082 14.5508 8.4082L17.7832 8.4082C18.3008 8.4082 18.5938 8.69141 18.5938 9.19922L18.5938 16.5137C18.5938 17.0215 18.3008 17.3047 17.7832 17.3047ZM0.683594 22.041L21.9629 22.041C22.3438 22.041 22.6367 21.709 22.6367 21.3281C22.6367 20.9473 22.3438 20.6055 21.9629 20.6055L0.683594 20.6055C0.292969 20.6055 0 20.9473 0 21.3281C0 21.709 0.292969 22.041 0.683594 22.041Z" fill="#ffffff" fill-opacity="0.85"/>
 </g>
</svg>
