<?xml version="1.0" encoding="UTF-8"?>
<!--Generator: Apple Native CoreSVG 175.5-->
<!DOCTYPE svg
PUBLIC "-//W3C//DTD SVG 1.1//EN"
       "http://www.w3.org/Graphics/SVG/1.1/DTD/svg11.dtd">
<svg version="1.1" xmlns="http://www.w3.org/2000/svg" xmlns:xlink="http://www.w3.org/1999/xlink" width="21.9922" height="22.666">
 <g>
  <rect height="22.666" opacity="0" width="21.9922" x="0" y="0"/>
  <path d="M0.712891 22.6367C1.10352 22.6367 1.43555 22.3438 1.43555 21.9629L1.43555 0.673828C1.43555 0.292969 1.10352 0 0.712891 0C0.332031 0 0 0.292969 0 0.673828L0 21.9629C0 22.3438 0.332031 22.6367 0.712891 22.6367ZM5.46875 10.3809L12.8418 10.3809C14.2969 10.3809 15.0781 9.60938 15.0781 8.18359L15.0781 4.78516C15.0781 3.35938 14.2969 2.58789 12.8418 2.58789L5.46875 2.58789C4.02344 2.58789 3.23242 3.35938 3.23242 4.78516L3.23242 8.18359C3.23242 9.60938 4.02344 10.3809 5.46875 10.3809ZM5.49805 8.90625C4.99023 8.90625 4.70703 8.62305 4.70703 8.0957L4.70703 4.86328C4.70703 4.3457 4.99023 4.0625 5.49805 4.0625L12.8125 4.0625C13.3203 4.0625 13.6035 4.3457 13.6035 4.86328L13.6035 8.0957C13.6035 8.62305 13.3203 8.90625 12.8125 8.90625ZM5.46875 20.0586L19.7559 20.0586C21.2109 20.0586 21.9922 19.2871 21.9922 17.8613L21.9922 14.4629C21.9922 13.0469 21.2109 12.2656 19.7559 12.2656L5.46875 12.2656C4.02344 12.2656 3.23242 13.0469 3.23242 14.4629L3.23242 17.8613C3.23242 19.2871 4.02344 20.0586 5.46875 20.0586ZM5.49805 18.584C4.99023 18.584 4.70703 18.3008 4.70703 17.7832L4.70703 14.5508C4.70703 14.0234 4.99023 13.7402 5.49805 13.7402L19.7266 13.7402C20.2344 13.7402 20.5176 14.0234 20.5176 14.5508L20.5176 17.7832C20.5176 18.3008 20.2344 18.584 19.7266 18.584Z" fill="#ffffff" fill-opacity="0.85"/>
 </g>
</svg>
