<?xml version="1.0" encoding="UTF-8"?>
<!--Generator: Apple Native CoreSVG 175.5-->
<!DOCTYPE svg
PUBLIC "-//W3C//DTD SVG 1.1//EN"
       "http://www.w3.org/Graphics/SVG/1.1/DTD/svg11.dtd">
<svg version="1.1" xmlns="http://www.w3.org/2000/svg" xmlns:xlink="http://www.w3.org/1999/xlink" width="26.4941" height="20.6934">
 <g>
  <rect height="20.6934" opacity="0" width="26.4941" x="0" y="0"/>
  <path d="M16.6016 20.6738L23.8379 20.6738C25.4297 20.6738 26.4941 19.6582 26.4941 18.1348L26.4941 2.53906C26.4941 1.01562 25.4297 0 23.8379 0L16.6016 0C15.0098 0 13.9355 1.01562 13.9355 2.53906L13.9355 18.1348C13.9355 19.6582 15.0098 20.6738 16.6016 20.6738ZM16.7969 19.1016C15.9766 19.1016 15.5078 18.6621 15.5078 17.8809L15.5078 2.79297C15.5078 2.01172 15.9766 1.57227 16.7969 1.57227L23.6328 1.57227C24.4531 1.57227 24.9219 2.01172 24.9219 2.79297L24.9219 17.8809C24.9219 18.6621 24.4531 19.1016 23.6328 19.1016ZM0.869141 18.3496C1.37695 18.3496 1.73828 17.998 1.73828 17.4902L1.73828 16.0059C1.73828 12.373 3.95508 11.2012 6.79688 11.2012L7.44141 11.2012L10.1465 11.1133L10.1465 10.5664L7.49023 12.9883L6.41602 13.9062C6.19141 14.0918 6.13281 14.3359 6.13281 14.5703C6.13281 15.0488 6.50391 15.4102 6.98242 15.4102C7.2168 15.4102 7.42188 15.3223 7.63672 15.1172L11.7676 10.9961C11.9629 10.8105 12.0703 10.5859 12.0703 10.3418C12.0703 10.0977 11.9629 9.87305 11.7676 9.6875L7.61719 5.54688C7.42188 5.35156 7.2168 5.27344 6.98242 5.27344C6.50391 5.27344 6.13281 5.625 6.13281 6.11328C6.13281 6.34766 6.19141 6.5918 6.41602 6.77734L7.49023 7.69531L10.1465 10.1172L10.1465 9.57031L7.44141 9.48242L6.79688 9.48242C3.33008 9.48242 0 11.0742 0 16.0059L0 17.4902C0 17.998 0.361328 18.3496 0.869141 18.3496Z" fill="#ffffff" fill-opacity="0.85"/>
 </g>
</svg>
