<?xml version="1.0" encoding="UTF-8"?>
<!--Generator: Apple Native CoreSVG 175.5-->
<!DOCTYPE svg
PUBLIC "-//W3C//DTD SVG 1.1//EN"
       "http://www.w3.org/Graphics/SVG/1.1/DTD/svg11.dtd">
<svg version="1.1" xmlns="http://www.w3.org/2000/svg" xmlns:xlink="http://www.w3.org/1999/xlink" width="17.9785" height="17.998">
 <g>
  <rect height="17.998" opacity="0" width="17.9785" x="0" y="0"/>
  <path d="M3.06641 17.998L14.9121 17.998C16.9629 17.998 17.9785 16.9824 17.9785 14.9707L17.9785 3.04688C17.9785 1.03516 16.9629 0.0195312 14.9121 0.0195312L3.06641 0.0195312C1.02539 0.0195312 0 1.02539 0 3.04688L0 14.9707C0 16.9922 1.02539 17.998 3.06641 17.998ZM3.08594 16.4258C2.10938 16.4258 1.57227 15.9082 1.57227 14.8926L1.57227 3.125C1.57227 2.10938 2.10938 1.5918 3.08594 1.5918L14.8926 1.5918C15.8594 1.5918 16.4062 2.10938 16.4062 3.125L16.4062 14.8926C16.4062 15.9082 15.8594 16.4258 14.8926 16.4258ZM7.06055 14.3262C7.64648 14.3262 7.96875 14.0527 7.96875 13.6523C7.96875 13.2617 7.68555 13.0078 7.29492 13.0078C6.63086 13.0078 6.38672 12.7246 6.38672 11.9141L6.38672 10.5762C6.38672 9.70703 5.84961 9.07227 4.96094 8.90625L4.96094 9.0918C5.84961 8.93555 6.38672 8.30078 6.38672 7.43164L6.38672 6.10352C6.38672 5.29297 6.63086 5 7.29492 5C7.68555 5 7.96875 4.75586 7.96875 4.36523C7.96875 3.96484 7.64648 3.68164 7.06055 3.68164C5.74219 3.68164 4.96094 4.45312 4.96094 5.9668L4.96094 7.1875C4.96094 7.89062 4.79492 8.05664 4.29688 8.18359C3.47656 8.39844 3.48633 9.60938 4.29688 9.82422C4.79492 9.96094 4.96094 10.127 4.96094 10.8301L4.96094 12.0508C4.96094 13.5645 5.74219 14.3262 7.06055 14.3262ZM10.9473 14.3262C12.2559 14.3262 13.0469 13.5645 13.0469 12.0508L13.0469 10.8301C13.0469 10.127 13.2129 9.96094 13.7012 9.82422C14.5215 9.61914 14.5215 8.38867 13.7012 8.18359C13.2129 8.05664 13.0469 7.89062 13.0469 7.1875L13.0469 5.9668C13.0469 4.45312 12.2559 3.68164 10.9473 3.68164C10.3613 3.68164 10.0293 3.96484 10.0293 4.36523C10.0293 4.75586 10.3223 5 10.7129 5C11.3672 5 11.6211 5.29297 11.6211 6.10352L11.6211 7.43164C11.6211 8.30078 12.1582 8.93555 13.0371 9.0918L13.0371 8.90625C12.1582 9.07227 11.6211 9.70703 11.6211 10.5762L11.6211 11.9141C11.6211 12.7246 11.3672 13.0078 10.7129 13.0078C10.3223 13.0078 10.0293 13.2617 10.0293 13.6523C10.0293 14.0527 10.3613 14.3262 10.9473 14.3262Z" fill="#ffffff" fill-opacity="0.85"/>
 </g>
</svg>
