<?xml version="1.0" encoding="UTF-8"?>
<!--Generator: Apple Native CoreSVG 175.5-->
<!DOCTYPE svg
PUBLIC "-//W3C//DTD SVG 1.1//EN"
       "http://www.w3.org/Graphics/SVG/1.1/DTD/svg11.dtd">
<svg version="1.1" xmlns="http://www.w3.org/2000/svg" xmlns:xlink="http://www.w3.org/1999/xlink" width="23.2812" height="20.3613">
 <g>
  <rect height="20.3613" opacity="0" width="23.2812" x="0" y="0"/>
  <path d="M2.24609 16.8945L21.0254 16.8945C22.4316 16.8945 23.2812 16.0449 23.2812 14.6387L23.2812 2.92969C23.2812 1.52344 22.4316 0.683594 21.0254 0.683594L2.24609 0.683594C0.849609 0.683594 0 1.52344 0 2.92969L0 14.6387C0 16.0449 0.849609 16.8945 2.24609 16.8945ZM2.27539 15.3223C1.8457 15.3223 1.57227 15.0488 1.57227 14.6191L1.57227 2.95898C1.57227 2.51953 1.8457 2.25586 2.27539 2.25586L21.0059 2.25586C21.4355 2.25586 21.709 2.51953 21.709 2.95898L21.709 14.6191C21.709 15.0488 21.4355 15.3223 21.0059 15.3223ZM8.55469 19.2188L14.7266 19.2188L14.7266 16.7676L8.55469 16.7676ZM8.49609 20.3613L14.7852 20.3613C15.2148 20.3613 15.5664 20.0098 15.5664 19.5703C15.5664 19.1309 15.2148 18.7793 14.7852 18.7793L8.49609 18.7793C8.06641 18.7793 7.70508 19.1309 7.70508 19.5703C7.70508 20.0098 8.06641 20.3613 8.49609 20.3613Z" fill="#ffffff" fill-opacity="0.85"/>
 </g>
</svg>
