<?xml version="1.0" encoding="UTF-8"?>
<!--Generator: Apple Native CoreSVG 175.5-->
<!DOCTYPE svg
PUBLIC "-//W3C//DTD SVG 1.1//EN"
       "http://www.w3.org/Graphics/SVG/1.1/DTD/svg11.dtd">
<svg version="1.1" xmlns="http://www.w3.org/2000/svg" xmlns:xlink="http://www.w3.org/1999/xlink" width="24.8828" height="17.998">
 <g>
  <rect height="17.998" opacity="0" width="24.8828" x="0" y="0"/>
  <path d="M3.06641 17.998L16.0352 17.998C15.8008 17.6758 15.6348 17.2852 15.5664 16.8359C15.5469 16.709 15.5371 16.5723 15.5273 16.4258L3.08594 16.4258C2.10938 16.4258 1.57227 15.9082 1.57227 14.8926L1.57227 3.125C1.57227 2.10938 2.10938 1.5918 3.08594 1.5918L19.9414 1.5918C20.9082 1.5918 21.4551 2.10938 21.4551 3.125L21.4551 3.47656C22.0215 3.47656 22.5195 3.47656 23.0273 3.47656L23.0273 3.04688C23.0273 1.03516 22.0117 0.0195312 19.9609 0.0195312L3.06641 0.0195312C1.02539 0.0195312 0 1.02539 0 3.04688L0 14.9707C0 16.9922 1.02539 17.998 3.06641 17.998ZM7.74414 15.6738L15.4883 15.6738C15.4883 15.3809 15.4883 15.0684 15.4883 14.7656L7.74414 14.7656C7.48047 14.7656 7.28516 14.9512 7.28516 15.2246C7.28516 15.498 7.48047 15.6738 7.74414 15.6738ZM18.5254 17.998L22.9785 17.998C24.1895 17.998 24.8828 17.334 24.8828 16.1719L24.8828 6.44531C24.8828 5.2832 24.1797 4.60938 22.9785 4.60938L18.5254 4.60938C17.3242 4.60938 16.6211 5.2832 16.6211 6.44531L16.6211 16.1719C16.6211 17.334 17.3145 17.998 18.5254 17.998ZM18.5547 16.7188C18.125 16.7188 17.9004 16.4941 17.9004 16.0449L17.9004 6.57227C17.9004 6.12305 18.125 5.88867 18.5547 5.88867L22.9492 5.88867C23.3789 5.88867 23.6035 6.12305 23.6035 6.57227L23.6035 16.0449C23.6035 16.4941 23.3789 16.7188 22.9492 16.7188ZM19.4141 16.2207L22.0703 16.2207C22.2656 16.2207 22.4121 16.084 22.4121 15.8789C22.4121 15.6934 22.2656 15.5469 22.0703 15.5469L19.4141 15.5469C19.2188 15.5469 19.0918 15.6934 19.0918 15.8789C19.0918 16.0938 19.209 16.2207 19.4141 16.2207ZM19.9707 7.31445L21.5039 7.31445C21.7578 7.31445 21.9531 7.10938 21.9531 6.85547C21.9531 6.61133 21.7578 6.41602 21.5039 6.41602L19.9707 6.41602C19.7168 6.41602 19.5215 6.61133 19.5215 6.85547C19.5215 7.10938 19.7168 7.31445 19.9707 7.31445Z" fill="#ffffff" fill-opacity="0.85"/>
 </g>
</svg>
