<?xml version="1.0" encoding="UTF-8"?>
<!--Generator: Apple Native CoreSVG 175.5-->
<!DOCTYPE svg
PUBLIC "-//W3C//DTD SVG 1.1//EN"
       "http://www.w3.org/Graphics/SVG/1.1/DTD/svg11.dtd">
<svg version="1.1" xmlns="http://www.w3.org/2000/svg" xmlns:xlink="http://www.w3.org/1999/xlink" width="23.0273" height="17.998">
 <g>
  <rect height="17.998" opacity="0" width="23.0273" x="0" y="0"/>
  <path d="M3.06641 17.998L19.9609 17.998C22.0117 17.998 23.0273 16.9824 23.0273 14.9707L23.0273 3.04688C23.0273 1.03516 22.0117 0.0195312 19.9609 0.0195312L3.06641 0.0195312C1.02539 0.0195312 0 1.02539 0 3.04688L0 14.9707C0 16.9922 1.02539 17.998 3.06641 17.998ZM3.08594 16.4258C2.10938 16.4258 1.57227 15.9082 1.57227 14.8926L1.57227 3.125C1.57227 2.10938 2.10938 1.5918 3.08594 1.5918L19.9414 1.5918C20.9082 1.5918 21.4551 2.10938 21.4551 3.125L21.4551 14.8926C21.4551 15.9082 20.9082 16.4258 19.9414 16.4258ZM7.74414 15.6738L15.293 15.6738C15.5566 15.6738 15.7422 15.498 15.7422 15.2246C15.7422 14.9512 15.5566 14.7656 15.293 14.7656L7.74414 14.7656C7.48047 14.7656 7.28516 14.9512 7.28516 15.2246C7.28516 15.498 7.48047 15.6738 7.74414 15.6738Z" fill="#ffffff" fill-opacity="0.85"/>
 </g>
</svg>
