<?xml version="1.0" encoding="UTF-8"?>
<!--Generator: Apple Native CoreSVG 175.5-->
<!DOCTYPE svg
PUBLIC "-//W3C//DTD SVG 1.1//EN"
       "http://www.w3.org/Graphics/SVG/1.1/DTD/svg11.dtd">
<svg version="1.1" xmlns="http://www.w3.org/2000/svg" xmlns:xlink="http://www.w3.org/1999/xlink" width="16.3184" height="22.0215">
 <g>
  <rect height="22.0215" opacity="0" width="16.3184" x="0" y="0"/>
  <path d="M0 19.4238C0 20.9668 1.08398 22.002 2.70508 22.002L13.6133 22.002C15.2344 22.002 16.3184 20.9668 16.3184 19.4238L16.3184 2.58789C16.3184 1.04492 15.2344 0 13.6133 0L2.70508 0C1.08398 0 0 1.04492 0 2.58789ZM1.57227 19.1602L1.57227 2.85156C1.57227 2.05078 2.06055 1.57227 2.90039 1.57227L13.418 1.57227C14.248 1.57227 14.7461 2.05078 14.7461 2.85156L14.7461 19.1602C14.7461 19.9609 14.248 20.4297 13.418 20.4297L2.90039 20.4297C2.06055 20.4297 1.57227 19.9609 1.57227 19.1602ZM5.39062 19.6875L10.9277 19.6875C11.2012 19.6875 11.3867 19.502 11.3867 19.2285C11.3867 18.9551 11.2012 18.7793 10.9277 18.7793L5.39062 18.7793C5.12695 18.7793 4.94141 18.9551 4.94141 19.2285C4.94141 19.502 5.12695 19.6875 5.39062 19.6875Z" fill="#ffffff" fill-opacity="0.85"/>
 </g>
</svg>
