<?xml version="1.0" encoding="UTF-8"?>
<!--Generator: Apple Native CoreSVG 175.5-->
<!DOCTYPE svg
PUBLIC "-//W3C//DTD SVG 1.1//EN"
       "http://www.w3.org/Graphics/SVG/1.1/DTD/svg11.dtd">
<svg version="1.1" xmlns="http://www.w3.org/2000/svg" xmlns:xlink="http://www.w3.org/1999/xlink" width="19.7109" height="25.1367">
 <g>
  <rect height="25.1367" opacity="0" width="19.7109" x="0" y="0"/>
  <path d="M4.53516 9.53906L15.1758 9.53906C15.9258 9.53906 16.2188 9.25781 16.2188 8.51953L16.2188 4.52344C16.2188 3.78516 15.9258 3.49219 15.1758 3.49219L4.53516 3.49219C3.79688 3.49219 3.49219 3.78516 3.49219 4.52344L3.49219 8.51953C3.49219 9.25781 3.79688 9.53906 4.53516 9.53906ZM0 21.457C0 23.9062 1.20703 25.125 3.63281 25.125L16.0781 25.125C18.5039 25.125 19.7109 23.9062 19.7109 21.457L19.7109 3.67969C19.7109 1.24219 18.5039 0 16.0781 0L3.63281 0C1.20703 0 0 1.24219 0 3.67969ZM1.88672 21.4219L1.88672 3.71484C1.88672 2.54297 2.50781 1.88672 3.72656 1.88672L15.9844 1.88672C17.2031 1.88672 17.8242 2.54297 17.8242 3.71484L17.8242 21.4219C17.8242 22.5938 17.2031 23.2383 15.9844 23.2383L3.72656 23.2383C2.50781 23.2383 1.88672 22.5938 1.88672 21.4219Z" fill="#ffffff" fill-opacity="0.85"/>
 </g>
</svg>
