<?xml version="1.0" encoding="UTF-8"?>
<!--Generator: Apple Native CoreSVG 175.5-->
<!DOCTYPE svg
PUBLIC "-//W3C//DTD SVG 1.1//EN"
       "http://www.w3.org/Graphics/SVG/1.1/DTD/svg11.dtd">
<svg version="1.1" xmlns="http://www.w3.org/2000/svg" xmlns:xlink="http://www.w3.org/1999/xlink" width="27.6328" height="21.5977">
 <g>
  <rect height="21.5977" opacity="0" width="27.6328" x="0" y="0"/>
  <path d="M0 6.19922L1.88672 6.19922L1.88672 3.75C1.88672 2.53125 2.53125 1.91016 3.70312 1.91016L6.12891 1.91016L6.12891 0.0234375L3.67969 0.0234375C1.23047 0.0234375 0 1.23047 0 3.65625ZM0 13.8164L1.88672 13.8164L1.88672 7.80469L0 7.80469ZM3.67969 21.5977L6.12891 21.5977L6.12891 19.7109L3.70312 19.7109C2.53125 19.7109 1.88672 19.0898 1.88672 17.8711L1.88672 15.4219L0 15.4219L0 17.9648C0 20.3906 1.23047 21.5977 3.67969 21.5977ZM7.73438 21.5977L13.0195 21.5977L13.0195 19.7109L7.73438 19.7109ZM14.6133 21.5977L19.8984 21.5977L19.8984 19.7109L14.6133 19.7109ZM23.9531 21.5977C26.4023 21.5977 27.6328 20.3906 27.6328 17.9648L27.6328 15.4219L25.7461 15.4219L25.7461 17.8711C25.7461 19.0898 25.1016 19.7109 23.9297 19.7109L21.5039 19.7109L21.5039 21.5977ZM27.6328 6.19922L27.6328 3.65625C27.6328 1.23047 26.4023 0.0234375 23.9531 0.0234375L21.5039 0.0234375L21.5039 1.91016L23.9297 1.91016C25.1016 1.91016 25.7461 2.53125 25.7461 3.75L25.7461 6.19922ZM27.6328 13.8164L27.6328 7.80469L25.7461 7.80469L25.7461 13.8164ZM7.73438 1.91016L13.0195 1.91016L13.0195 0.0234375L7.73438 0.0234375ZM14.6133 1.91016L19.8984 1.91016L19.8984 0.0234375L14.6133 0.0234375Z" fill="#ffffff" fill-opacity="0.85"/>
 </g>
</svg>
