<?xml version="1.0" encoding="UTF-8"?>
<!--Generator: Apple Native CoreSVG 175.5-->
<!DOCTYPE svg
PUBLIC "-//W3C//DTD SVG 1.1//EN"
       "http://www.w3.org/Graphics/SVG/1.1/DTD/svg11.dtd">
<svg version="1.1" xmlns="http://www.w3.org/2000/svg" xmlns:xlink="http://www.w3.org/1999/xlink" width="19.7109" height="25.1367">
 <g>
  <rect height="25.1367" opacity="0" width="19.7109" x="0" y="0"/>
  <path d="M5.29688 6.69141L5.29688 18.4453C5.29688 19.2539 5.63672 19.6055 6.48047 19.6055L13.2305 19.6055C14.0742 19.6055 14.4141 19.2539 14.4141 18.4453L14.4141 6.69141C14.4141 5.87109 14.0742 5.53125 13.2305 5.53125L6.48047 5.53125C5.63672 5.53125 5.29688 5.87109 5.29688 6.69141ZM0 21.457C0 23.9062 1.20703 25.125 3.63281 25.125L16.0781 25.125C18.5039 25.125 19.7109 23.9062 19.7109 21.457L19.7109 3.67969C19.7109 1.24219 18.5039 0 16.0781 0L3.63281 0C1.20703 0 0 1.24219 0 3.67969ZM1.88672 21.4219L1.88672 3.71484C1.88672 2.54297 2.50781 1.88672 3.72656 1.88672L15.9844 1.88672C17.2031 1.88672 17.8242 2.54297 17.8242 3.71484L17.8242 21.4219C17.8242 22.5938 17.2031 23.2383 15.9844 23.2383L3.72656 23.2383C2.50781 23.2383 1.88672 22.5938 1.88672 21.4219Z" fill="#ffffff" fill-opacity="0.85"/>
 </g>
</svg>
