<svg width="1501" height="551" viewBox="0 0 1501 551" fill="none" xmlns="http://www.w3.org/2000/svg">
<path d="M746.064 391.679C734.145 393.913 722.449 394.862 710.975 394.527C699.613 394.304 689.421 392.238 680.398 388.329C671.375 384.308 664.525 377.998 659.846 369.399C655.725 361.581 653.552 353.596 653.33 345.444C653.107 337.291 652.995 328.077 652.995 317.803V160.5H693.097V315.457C693.097 322.717 693.152 329.082 693.264 334.555C693.487 340.027 694.656 344.494 696.773 347.956C700.783 354.657 707.188 358.398 715.988 359.18C724.788 359.962 734.813 359.515 746.064 357.84V391.679ZM620.246 242.418V210.757H746.064V242.418H620.246Z" fill="black"/>
<path d="M891.303 391.679V304.568C891.303 298.873 890.913 292.563 890.133 285.639C889.353 278.714 887.515 272.069 884.619 265.704C881.834 259.226 877.601 253.921 871.92 249.789C866.351 245.657 858.776 243.591 849.196 243.591C844.072 243.591 839.004 244.428 833.991 246.104C828.979 247.779 824.412 250.683 820.29 254.815C816.28 258.835 813.05 264.419 810.599 271.567C808.148 278.603 806.923 287.649 806.923 298.705L783.029 288.486C783.029 273.075 785.981 259.114 791.885 246.606C797.9 234.098 806.7 224.158 818.285 216.787C829.87 209.305 844.128 205.564 861.06 205.564C874.427 205.564 885.455 207.797 894.143 212.264C902.832 216.732 909.738 222.427 914.862 229.352C919.986 236.276 923.773 243.647 926.224 251.464C928.675 259.282 930.234 266.709 930.903 273.745C931.682 280.669 932.072 286.309 932.072 290.664V391.679H891.303ZM766.153 391.679V150.449H802.077V277.43H806.923V391.679H766.153Z" fill="black"/>
<path d="M1039.34 396.705C1021.07 396.705 1005.03 392.74 991.214 384.811C977.401 376.882 966.596 365.881 958.799 351.809C951.112 337.738 947.269 321.544 947.269 303.228C947.269 283.461 951.057 266.318 958.631 251.799C966.206 237.169 976.733 225.834 990.211 217.793C1003.69 209.752 1019.28 205.731 1037 205.731C1055.71 205.731 1071.58 210.142 1084.62 218.965C1097.76 227.676 1107.51 240.017 1113.86 255.987C1120.21 271.958 1122.6 290.776 1121.04 312.442H1081.11V297.7C1081 278.044 1077.54 263.693 1070.75 254.647C1063.95 245.601 1053.26 241.078 1038.67 241.078C1022.18 241.078 1009.93 246.215 1001.91 256.49C993.887 266.653 989.877 281.562 989.877 301.218C989.877 319.534 993.887 333.717 1001.91 343.768C1009.93 353.82 1021.62 358.845 1037 358.845C1046.91 358.845 1055.43 356.667 1062.56 352.312C1069.8 347.845 1075.37 341.423 1079.27 333.047L1119.04 345.108C1112.13 361.414 1101.44 374.09 1086.96 383.136C1072.59 392.182 1056.71 396.705 1039.34 396.705ZM977.178 312.442V281.953H1101.32V312.442H977.178Z" fill="black"/>
<path d="M1245.71 391.679C1233.79 393.913 1222.1 394.862 1210.62 394.527C1199.26 394.304 1189.07 392.238 1180.04 388.329C1171.02 384.308 1164.17 377.998 1159.49 369.399C1155.37 361.581 1153.2 353.596 1152.98 345.444C1152.75 337.291 1152.64 328.077 1152.64 317.803V160.5H1192.74V315.457C1192.74 322.717 1192.8 329.082 1192.91 334.555C1193.13 340.027 1194.3 344.494 1196.42 347.956C1200.43 354.657 1206.83 358.398 1215.63 359.18C1224.43 359.962 1234.46 359.515 1245.71 357.84V391.679ZM1119.89 242.418V210.757H1245.71V242.418H1119.89Z" fill="black"/>
<path d="M1316.59 396.705C1303.56 396.705 1292.53 394.248 1283.51 389.334C1274.49 384.308 1267.64 377.663 1262.96 369.399C1258.39 361.135 1256.11 352.033 1256.11 342.093C1256.11 333.382 1257.56 325.564 1260.45 318.64C1263.35 311.604 1267.81 305.574 1273.82 300.548C1279.84 295.411 1287.63 291.223 1297.21 287.984C1304.45 285.639 1312.92 283.517 1322.61 281.618C1332.41 279.719 1342.99 277.988 1354.36 276.425C1365.83 274.75 1377.8 272.963 1390.28 271.064L1375.91 279.273C1376.02 266.765 1373.24 257.551 1367.56 251.632C1361.88 245.713 1352.3 242.753 1338.82 242.753C1330.69 242.753 1322.83 244.652 1315.26 248.449C1307.68 252.246 1302.39 258.779 1299.38 268.049L1262.63 256.49C1267.08 241.19 1275.55 228.905 1288.02 219.635C1300.61 210.366 1317.54 205.731 1338.82 205.731C1354.86 205.731 1368.95 208.356 1381.09 213.605C1393.34 218.854 1402.42 227.453 1408.33 239.403C1411.56 245.769 1413.51 252.302 1414.17 259.003C1414.84 265.592 1415.18 272.795 1415.18 280.613V391.679H1379.92V352.479L1385.77 358.845C1377.64 371.912 1368.11 381.516 1357.2 387.659C1346.39 393.69 1332.86 396.705 1316.59 396.705ZM1324.62 364.541C1333.75 364.541 1341.55 362.922 1348.01 359.683C1354.47 356.444 1359.59 352.479 1363.38 347.789C1367.28 343.098 1369.9 338.687 1371.23 334.555C1373.35 329.417 1374.52 323.554 1374.74 316.965C1375.08 310.264 1375.24 304.848 1375.24 300.715L1387.61 304.401C1375.47 306.299 1365.05 307.975 1356.36 309.427C1347.67 310.878 1340.21 312.274 1333.97 313.615C1327.73 314.843 1322.22 316.239 1317.43 317.803C1312.75 319.478 1308.8 321.432 1305.57 323.666C1302.34 325.899 1299.83 328.468 1298.05 331.372C1296.38 334.275 1295.54 337.682 1295.54 341.591C1295.54 346.058 1296.66 350.022 1298.88 353.484C1301.11 356.835 1304.34 359.515 1308.57 361.526C1312.92 363.536 1318.27 364.541 1324.62 364.541Z" fill="black"/>
<path fill-rule="evenodd" clip-rule="evenodd" d="M426.399 343.081C457.444 277.71 436.355 201.071 383.719 150.868C332.415 101.935 256.716 88.9188 193.831 121.298C128.433 154.971 87.6911 224.632 99.7985 297.012C112.219 371.264 172.365 428.397 246.955 438.918C321.25 449.396 394.245 410.791 426.399 343.081ZM386.173 148.295C439.699 199.348 461.435 277.592 429.611 344.606C396.778 413.743 322.268 453.13 246.458 442.438C170.376 431.707 108.976 373.424 96.2922 297.599C83.8943 223.483 125.632 152.415 192.204 118.137C256.517 85.0227 333.84 98.3813 386.173 148.295Z" fill="black"/>
<path fill-rule="evenodd" clip-rule="evenodd" d="M358.871 179.783C345.945 166.32 332.096 153.656 315.081 146.865C297.86 139.992 278.84 138.563 260.236 140.378C241.931 142.163 224.246 148.064 208.326 157.315C192.753 166.365 180.608 179.778 168.648 193.668C166.699 195.93 164.717 198.161 162.74 200.388C158.392 205.282 154.065 210.153 150.157 215.288C144.5 222.719 139.858 230.536 137.554 239.38C133.461 255.088 137.153 271.435 140.868 287.887C141.369 290.102 141.87 292.32 142.352 294.539C146.278 312.595 150.538 330.483 160.681 345.464C170.831 360.456 185.284 372.014 201.042 381.298C216.484 390.397 233.741 395.269 251.503 398.895C253.441 399.291 255.378 399.698 257.315 400.105C274.042 403.62 290.68 407.117 306.629 402.933C324.502 398.244 339.062 385.406 352.837 372.346C366.013 359.854 376.732 345.204 384.628 328.854C392.527 312.497 398.072 295.111 398.862 277.103C399.656 259.006 396.138 240.951 389.24 224.149C382.386 207.451 371.478 192.913 358.871 179.783ZM316.291 143.819C334.003 150.888 348.263 164.003 361.235 177.513C374.014 190.823 385.211 205.702 392.274 222.909C399.335 240.109 402.956 258.637 402.139 277.253C401.324 295.837 395.608 313.666 387.582 330.285C379.514 346.993 368.559 361.965 355.096 374.729C341.37 387.742 326.256 401.177 307.468 406.106C290.718 410.5 273.279 406.823 256.671 403.322C254.719 402.911 252.779 402.502 250.853 402.109C232.966 398.457 215.29 393.497 199.381 384.123C183.376 374.693 168.484 362.834 157.966 347.299C147.419 331.722 143.06 313.228 139.147 295.229C138.673 293.049 138.174 290.851 137.673 288.637C133.966 272.282 130.07 255.085 134.379 238.547C136.836 229.119 141.753 220.906 147.545 213.298C151.53 208.063 155.995 203.035 160.384 198.094C162.341 195.89 164.283 193.704 166.16 191.524C178.107 177.651 190.569 163.836 206.674 154.478C222.979 145.003 241.114 138.947 259.91 137.113C278.871 135.263 298.449 136.698 316.291 143.819Z" fill="black"/>
<path fill-rule="evenodd" clip-rule="evenodd" d="M124.341 230.651C117.252 251.319 111.489 272.52 113.536 293.871C115.607 315.479 124.308 336.044 136.164 354.438C147.83 372.537 163.446 387.785 181.605 399.401C199.369 410.764 219.838 416.22 240.704 421.23C244.104 422.046 247.488 422.914 250.865 423.779C258.289 425.683 265.678 427.578 273.117 428.896C283.883 430.803 294.507 431.447 304.948 429.108C323.492 424.954 338.531 412.353 353.666 399.671C355.704 397.963 357.745 396.253 359.796 394.563C376.488 380.802 392.827 366.784 402.988 348.201C413.157 329.603 417.445 308.366 418.668 286.989C419.866 266.039 415.693 245.465 409.952 225.033C409.326 222.804 408.711 220.569 408.098 218.335C402.796 199.039 397.522 179.846 384.622 165.485C370.167 149.391 349.002 141.113 328.028 133.77C307.965 126.746 286.971 123.437 265.722 123.977C244.463 124.517 223.393 128.059 204.225 136.884C184.961 145.753 168.051 159.088 154.256 175.27C140.546 191.351 131.256 210.493 124.341 230.651ZM109.716 294.242C107.586 272.018 113.598 250.148 120.713 229.406C127.721 208.973 137.212 189.347 151.339 172.775C165.462 156.21 182.809 142.515 202.626 133.392C222.407 124.285 244.029 120.683 265.629 120.135C287.344 119.583 308.799 122.965 329.298 130.142C350.197 137.459 372.28 145.994 387.476 162.912C401.023 177.994 406.539 198.117 411.792 217.281C412.409 219.533 413.023 221.772 413.646 223.988C419.427 244.564 423.733 265.622 422.498 287.204C421.256 308.916 416.89 330.772 406.353 350.044C395.787 369.368 378.871 383.813 362.232 397.53C360.217 399.191 358.195 400.887 356.159 402.596C341.119 415.216 325.306 428.485 305.781 432.859C294.651 435.352 283.467 434.633 272.444 432.681C264.86 431.337 257.234 429.382 249.739 427.461C246.397 426.604 243.081 425.754 239.806 424.967C218.964 419.963 197.907 414.392 179.537 402.641C160.938 390.744 144.919 375.11 132.94 356.526C120.857 337.78 111.862 316.631 109.716 294.242Z" fill="black"/>
<path fill-rule="evenodd" clip-rule="evenodd" d="M329.222 225.994C327.294 224.409 325.337 222.792 323.479 221.092C321.658 219.425 319.905 217.661 318.184 215.924L318.049 215.788C316.365 214.089 314.711 212.42 313.006 210.842C309.504 207.603 305.884 204.842 301.651 203.189C297.455 201.55 292.961 201.24 288.199 201.315C286.569 201.34 284.875 201.414 283.152 201.489C279.975 201.628 276.7 201.77 273.547 201.623C270.381 201.475 267.132 201.059 263.971 200.654C262.233 200.431 260.521 200.212 258.864 200.043C254.081 199.554 249.501 199.437 245.064 200.562C235.817 202.905 227.403 208.282 220.391 214.954C214.688 220.381 211.031 227.37 207.234 234.627C206.497 236.035 205.755 237.453 204.992 238.871C204.067 240.591 203.124 242.258 202.191 243.909C200.728 246.498 199.286 249.048 197.966 251.705C195.836 255.988 194.155 260.308 193.498 264.901C192.165 274.233 194.457 283.754 197.185 293.2C199.838 302.385 203.61 311.152 209.13 318.843C214.682 326.579 221.421 333.442 229.487 338.279C236.174 342.288 243.765 344.042 251.648 345.863C253.098 346.198 254.557 346.535 256.022 346.888C258.157 347.404 260.294 348 262.402 348.588C262.646 348.656 262.888 348.724 263.131 348.791C265.487 349.447 267.809 350.082 270.125 350.598C274.76 351.63 279.269 352.159 283.733 351.432C288.204 350.703 292.334 348.815 296.388 346.398C299.072 344.798 301.635 343.024 304.236 341.224C305.612 340.271 307 339.311 308.421 338.365C316.086 333.266 323.224 327.711 329.34 320.976C335.799 313.864 342.086 306.765 345.104 298.09C347.736 290.525 347.451 282.408 347.156 273.998C347.11 272.693 347.064 271.381 347.028 270.063C346.975 268.091 346.97 266.157 346.965 264.241C346.958 261.209 346.95 258.222 346.752 255.207C346.435 250.371 345.632 245.789 343.622 241.603C341.622 237.44 338.497 234.024 334.877 230.773C333.153 229.226 331.343 227.738 329.5 226.223L329.222 225.994ZM337.05 228.351C340.799 231.717 344.29 235.473 346.562 240.203C348.828 244.922 349.677 249.974 350.008 255.01C350.21 258.094 350.22 261.301 350.23 264.433C350.236 266.328 350.241 268.196 350.29 269.992C350.324 271.258 350.37 272.538 350.416 273.829C350.718 282.192 351.035 290.989 348.186 299.176C344.917 308.573 338.154 316.136 331.76 323.176C325.401 330.18 318.027 335.903 310.238 341.084C308.923 341.959 307.587 342.883 306.233 343.819C303.571 345.661 300.841 347.55 298.07 349.202C293.84 351.724 289.31 353.831 284.274 354.652C279.223 355.475 274.249 354.854 269.432 353.782C267.022 353.245 264.626 352.589 262.271 351.933C262.028 351.866 261.786 351.798 261.544 351.731C259.428 351.141 257.348 350.561 255.272 350.059C253.876 349.722 252.463 349.397 251.04 349.069C243.167 347.257 234.991 345.374 227.82 341.074C219.275 335.95 212.223 328.735 206.482 320.735C200.688 312.662 196.777 303.528 194.051 294.091C191.323 284.646 188.826 274.517 190.268 264.423C190.994 259.348 192.837 254.677 195.042 250.241C196.388 247.534 197.92 244.821 199.424 242.157C200.349 240.521 201.263 238.902 202.117 237.314C202.84 235.971 203.554 234.603 204.274 233.224C208.064 225.967 212.008 218.417 218.135 212.585C225.432 205.642 234.321 199.915 244.247 197.399C249.24 196.134 254.273 196.296 259.179 196.798C261.02 196.986 262.812 197.216 264.582 197.444C267.638 197.837 270.627 198.222 273.683 198.364C276.71 198.506 279.696 198.374 282.758 198.238C284.517 198.161 286.3 198.082 288.131 198.053C293.026 197.976 298.03 198.279 302.825 200.151C307.614 202.021 311.589 205.099 315.215 208.453C316.973 210.08 318.672 211.794 320.341 213.477L320.496 213.634C322.224 215.377 323.923 217.086 325.676 218.691C327.46 220.324 329.353 221.889 331.287 223.479C331.385 223.56 331.483 223.64 331.581 223.721C333.41 225.224 335.271 226.754 337.05 228.351Z" fill="black"/>
<path fill-rule="evenodd" clip-rule="evenodd" d="M253.074 185.201C247.439 184.642 242.057 184.616 236.956 186.373C227.539 189.618 220.444 197.295 213.307 205.017C212.574 205.809 211.841 206.603 211.104 207.392C203.705 215.321 197.881 224.407 192.644 234.034C192.369 234.539 192.095 235.043 191.82 235.546C186.682 244.972 181.629 254.239 179.984 264.527C178.206 275.645 179.104 287.172 182.356 297.971C185.58 308.674 191.578 318.374 198.832 327.007C205.869 335.382 214.958 341.513 224.251 347.74C226.189 349.038 228.064 350.368 229.927 351.689C232.73 353.677 235.503 355.644 238.416 357.452C243.194 360.415 248.087 362.769 253.439 363.677C258.762 364.58 264.096 363.832 269.569 362.531C271.897 361.977 274.222 361.33 276.578 360.675C276.993 360.56 277.409 360.444 277.827 360.329C280.598 359.561 283.41 358.806 286.239 358.226C289.026 357.655 291.848 357.218 294.64 356.798C294.941 356.752 295.241 356.707 295.542 356.662C298.035 356.288 300.499 355.919 302.932 355.468C308.38 354.458 313.556 353.055 318.232 350.38C327.222 345.237 333.698 336.779 340.246 328.227C340.634 327.72 341.022 327.213 341.411 326.706C341.89 326.082 342.371 325.459 342.85 324.837C349.378 316.37 355.827 308.005 358.42 298.037C359.793 292.759 359.821 287.323 359.368 281.734C359.142 278.94 358.797 276.13 358.447 273.287L358.429 273.148C358.086 270.36 357.738 267.54 357.503 264.724C357.263 261.855 357.142 258.96 357.022 256.1L357.021 256.066C356.901 253.184 356.781 250.337 356.545 247.526C356.073 241.904 355.141 236.521 352.868 231.539C348.249 221.416 339.617 213.726 330.878 206.256C322.323 198.942 313.326 192.152 302.873 188.828C297.792 187.212 292.499 186.856 287.025 186.869C284.969 186.874 282.854 186.933 280.716 186.992C277.262 187.088 273.747 187.186 270.32 187.061C266.683 186.928 262.931 186.434 259.264 185.951C257.16 185.673 255.084 185.4 253.074 185.201ZM259.844 183.219C263.399 183.69 266.886 184.151 270.421 184.281C273.791 184.404 277.111 184.31 280.476 184.215C282.631 184.154 284.803 184.092 287.018 184.087C292.593 184.074 298.222 184.431 303.709 186.175C314.726 189.679 324.079 196.79 332.674 204.137C341.356 211.559 350.475 219.616 355.386 230.38C357.852 235.785 358.823 241.534 359.306 247.292C359.548 250.172 359.669 253.078 359.789 255.949L359.789 255.954C359.91 258.835 360.029 261.681 360.263 264.492C360.494 267.252 360.836 270.026 361.182 272.831L361.196 272.945C361.546 275.78 361.897 278.647 362.129 281.509C362.593 287.232 362.587 293.025 361.101 298.74C358.358 309.285 351.564 318.088 345.111 326.45C344.606 327.104 344.104 327.756 343.605 328.405C343.19 328.946 342.773 329.491 342.355 330.037C335.896 338.481 329.098 347.365 319.603 352.798C314.532 355.699 309.003 357.171 303.435 358.204C300.952 358.664 298.44 359.041 295.952 359.414C295.651 359.459 295.35 359.504 295.05 359.549C292.259 359.969 289.501 360.397 286.793 360.952C284.063 361.511 281.331 362.244 278.563 363.011C278.152 363.124 277.74 363.239 277.327 363.354C274.973 364.009 272.59 364.671 270.208 365.238C264.603 366.571 258.842 367.415 252.977 366.42C247.126 365.427 241.882 362.872 236.96 359.818C234.008 357.987 231.075 355.909 228.195 353.869C226.343 352.557 224.513 351.26 222.714 350.054C213.473 343.863 204.046 337.526 196.714 328.801C189.296 319.972 183.068 309.944 179.705 298.777C176.336 287.595 175.4 275.641 177.249 264.086C178.973 253.307 184.243 243.646 189.325 234.328C189.622 233.784 189.918 233.242 190.212 232.701C195.507 222.967 201.461 213.657 209.083 205.489C209.822 204.697 210.564 203.892 211.313 203.081C218.357 195.446 225.94 187.228 236.057 183.742C241.727 181.789 247.587 181.861 253.346 182.432C255.553 182.651 257.711 182.937 259.844 183.219Z" fill="black"/>
<path fill-rule="evenodd" clip-rule="evenodd" d="M383.159 315.159C387.55 309.042 391.159 302.86 392.523 295.815C395.041 282.809 390.904 269.525 386.742 256.162C386.315 254.79 385.888 253.418 385.467 252.044C381.24 238.242 374.632 225.483 367.009 213.04C366.609 212.388 366.21 211.736 365.812 211.084C358.356 198.889 351.025 186.899 340.252 178.152C328.609 168.7 314.715 162.057 300.095 158.611C285.606 155.196 270.429 155.643 255.647 158.247C241.307 160.774 228.19 167.159 214.829 173.714C212.042 175.081 209.261 176.355 206.499 177.62C202.342 179.524 198.229 181.408 194.207 183.56C187.612 187.088 181.644 191.156 177.038 196.715C172.457 202.244 169.772 208.885 167.634 216.055C166.725 219.105 165.925 222.213 165.114 225.363C164.971 225.918 164.828 226.474 164.684 227.031C163.726 230.734 162.729 234.475 161.516 238.12C160.321 241.71 158.949 245.252 157.578 248.746C157.43 249.123 157.282 249.499 157.134 249.875C155.907 252.996 154.695 256.079 153.598 259.181C151.141 266.129 149.317 273.023 149.294 280.19C149.249 293.97 154.7 307.061 160.211 320.298C160.538 321.082 160.864 321.866 161.19 322.652C161.591 323.619 161.991 324.587 162.39 325.555C167.816 338.71 173.177 351.709 182.952 361.335C188.127 366.43 194.379 370.083 201.127 373.283C204.501 374.883 207.971 376.358 211.484 377.848L211.656 377.921C215.1 379.382 218.585 380.859 221.989 382.464C225.458 384.098 228.878 385.887 232.257 387.654L232.297 387.675C235.701 389.456 239.065 391.215 242.464 392.815C249.264 396.016 256.092 398.527 263.351 399.227C278.1 400.65 292.71 395.829 307.138 390.74C321.263 385.759 335.078 379.92 345.863 370.095C351.105 365.319 355.035 359.461 358.66 353.148C360.021 350.777 361.359 348.302 362.712 345.8C364.898 341.758 367.123 337.644 369.546 333.781C372.117 329.682 375.182 325.69 378.178 321.788C379.897 319.549 381.592 317.34 383.159 315.159ZM380.943 324.275C378.037 328.056 375.185 331.764 372.686 335.749C370.303 339.548 368.203 343.435 366.076 347.373C364.714 349.895 363.34 352.439 361.873 354.993C358.182 361.422 354.027 367.667 348.366 372.824C337 383.179 322.577 389.215 308.388 394.22C294.053 399.276 278.696 404.412 263.013 402.899C255.139 402.14 247.863 399.428 240.898 396.15C237.416 394.511 233.983 392.715 230.591 390.941L230.585 390.938C227.183 389.158 223.82 387.4 220.422 385.798C217.084 384.225 213.657 382.772 210.191 381.302L210.05 381.242C206.548 379.757 203.007 378.253 199.551 376.614C192.641 373.337 185.962 369.471 180.358 363.953C170.018 353.772 164.381 340.085 159.025 327.084C158.606 326.067 158.189 325.054 157.772 324.048C157.424 323.208 157.073 322.366 156.72 321.521C151.275 308.458 145.546 294.712 145.593 280.16C145.619 272.387 147.597 265.039 150.108 257.939C151.227 254.773 152.464 251.628 153.687 248.516C153.836 248.139 153.984 247.762 154.131 247.386C155.503 243.892 156.842 240.431 158.003 236.942C159.173 233.426 160.144 229.791 161.101 226.093C161.243 225.544 161.385 224.993 161.527 224.441C162.337 221.294 163.156 218.109 164.087 214.987C166.276 207.645 169.133 200.448 174.18 194.356C179.216 188.278 185.651 183.941 192.445 180.306C196.521 178.126 200.868 176.133 205.137 174.174C207.882 172.915 210.594 171.671 213.182 170.402C226.468 163.883 240.046 157.246 254.985 154.614C270.103 151.95 285.811 151.457 300.93 155.02C316.068 158.588 330.479 165.471 342.58 175.296C353.867 184.46 361.508 196.964 368.876 209.023C369.306 209.726 369.735 210.428 370.164 211.128C377.871 223.708 384.652 236.766 389.006 250.983C389.428 252.362 389.863 253.753 390.301 255.156C394.424 268.353 398.862 282.558 396.156 296.532C394.64 304.363 390.66 311.063 386.171 317.316C384.452 319.711 382.688 322.006 380.943 324.275Z" fill="black"/>
<path fill-rule="evenodd" clip-rule="evenodd" d="M328.696 184.622C324.358 179.506 319.798 175.05 314.014 172.337C303.336 167.328 290.997 167.99 278.585 168.655C277.311 168.723 276.036 168.792 274.762 168.854C261.957 169.479 249.543 172.383 237.185 176.229C236.538 176.431 235.891 176.632 235.244 176.832C223.135 180.589 211.231 184.282 201.388 191.648C190.751 199.608 182.057 210.12 175.964 221.954C169.926 233.684 167.072 246.848 166.163 260.144C165.281 273.042 167.987 285.729 170.787 298.664C171.372 301.361 171.876 304.034 172.378 306.688C173.133 310.683 173.879 314.636 174.876 318.568C176.511 325.017 178.745 331.044 182.556 336.223C186.346 341.374 191.5 345.136 197.226 348.542C199.662 349.99 202.172 351.358 204.715 352.744C205.163 352.988 205.612 353.233 206.062 353.479C209.051 355.112 212.064 356.788 214.948 358.628C217.789 360.44 220.551 362.394 223.271 364.338C223.565 364.548 223.858 364.758 224.15 364.967C226.58 366.705 228.98 368.421 231.421 370.043C236.887 373.675 242.444 376.752 248.619 378.336C260.493 381.384 272.945 379.55 285.537 377.695C286.283 377.585 287.029 377.475 287.776 377.366C288.696 377.232 289.616 377.099 290.535 376.967C303.038 375.168 315.393 373.39 325.78 367.076C331.279 363.733 335.763 359.148 339.964 354.037C342.064 351.482 344.076 348.816 346.111 346.117L346.21 345.985C348.205 343.338 350.224 340.661 352.334 338.08C354.484 335.451 356.756 332.897 359.001 330.374L359.028 330.343C361.29 327.801 363.525 325.289 365.631 322.712C369.842 317.557 373.466 312.226 375.619 306.129C379.994 293.741 378.956 280.11 377.647 266.577C376.366 253.328 374.28 240.159 368.109 228.728C365.11 223.172 360.897 218.51 356.227 214.01C354.473 212.32 352.625 210.628 350.756 208.917C347.737 206.152 344.664 203.339 341.85 200.409C338.863 197.3 336.075 193.789 333.35 190.358C331.786 188.39 330.243 186.447 328.696 184.622ZM336.085 188.521C338.725 191.848 341.314 195.113 344.217 198.135C346.984 201.016 349.888 203.673 352.83 206.364C354.714 208.088 356.614 209.826 358.504 211.646C363.26 216.228 367.759 221.169 370.998 227.169C377.501 239.216 379.627 252.951 380.914 266.261C382.215 279.707 383.366 294.05 378.714 307.222C376.378 313.835 372.486 319.508 368.173 324.788C366.016 327.428 363.735 329.992 361.48 332.525L361.477 332.529C359.216 335.07 356.981 337.581 354.875 340.158C352.806 342.688 350.821 345.321 348.813 347.984L348.731 348.093C346.703 350.784 344.65 353.504 342.499 356.121C338.198 361.355 333.439 366.261 327.484 369.881C316.497 376.56 303.49 378.425 291.135 380.197C290.169 380.336 289.207 380.474 288.25 380.614C287.452 380.73 286.651 380.848 285.847 380.967C273.419 382.803 260.343 384.734 247.803 381.516C241.105 379.797 235.191 376.489 229.604 372.777C227.113 371.122 224.666 369.371 222.243 367.638C221.949 367.428 221.656 367.218 221.363 367.009C218.642 365.065 215.944 363.156 213.183 361.395C210.401 359.62 207.473 357.99 204.488 356.359C204.045 356.117 203.6 355.874 203.155 355.632C200.614 354.247 198.042 352.846 195.549 351.363C189.684 347.875 184.088 343.844 179.912 338.168C175.745 332.505 173.379 326.018 171.695 319.375C170.685 315.39 169.893 311.212 169.116 307.109C168.616 304.471 168.122 301.864 167.58 299.359C164.794 286.496 161.969 273.357 162.888 259.92C163.818 246.323 166.746 232.691 173.046 220.452C179.355 208.198 188.366 197.293 199.422 189.02C209.734 181.303 222.148 177.455 234.12 173.744C234.818 173.528 235.515 173.312 236.21 173.095C248.704 169.207 261.412 166.22 274.602 165.576C275.881 165.513 277.173 165.443 278.477 165.372C290.737 164.703 303.935 163.984 315.408 169.365C321.837 172.38 326.766 177.27 331.2 182.5C332.898 184.503 334.501 186.523 336.085 188.521Z" fill="black"/>
<path fill-rule="evenodd" clip-rule="evenodd" d="M370.998 119.933C363.504 111.094 355.826 103.646 346.222 99.1402C328.191 90.6812 307.311 91.789 285.535 92.9445C283.34 93.0609 281.136 93.1779 278.926 93.2855C256.88 94.3591 235.449 99.3577 213.999 106.031C212.91 106.37 211.823 106.707 210.738 107.044C189.507 113.63 169.123 119.953 152.308 132.535C134.07 146.182 119.145 164.22 108.684 184.547C98.3509 204.623 93.4318 227.232 91.8647 250.195C90.3572 272.287 94.9909 294.076 99.8914 316.693C100.943 321.544 101.832 326.251 102.707 330.889C104.008 337.774 105.279 344.505 107.008 351.325C109.824 362.427 113.623 372.593 120.003 381.264C126.324 389.854 134.982 396.214 144.867 402.094C149.072 404.596 153.404 406.956 157.841 409.375C158.624 409.802 159.411 410.231 160.202 410.663C165.419 413.514 170.739 416.472 175.846 419.731C180.862 422.931 185.726 426.375 190.471 429.766C190.984 430.132 191.495 430.498 192.004 430.862C196.247 433.897 200.398 436.867 204.618 439.671C214.063 445.948 223.486 451.14 233.865 453.805C254.077 458.996 275.331 455.872 297.431 452.623C298.682 452.439 299.936 452.255 301.193 452.071C302.763 451.842 304.33 451.617 305.892 451.392C327.825 448.235 348.887 445.204 366.554 434.466C375.804 428.845 383.42 421.088 390.669 412.267C394.293 407.856 397.772 403.248 401.324 398.535L401.51 398.289C404.981 393.684 408.525 388.982 412.236 384.443C416.018 379.817 420.009 375.332 423.914 370.943L423.977 370.873C427.928 366.433 431.79 362.091 435.424 357.643C442.692 348.747 448.809 339.705 452.427 329.458C459.847 308.441 458.118 285.198 455.825 261.529C453.592 238.467 449.98 215.922 439.464 196.447C434.412 187.09 427.277 179.166 419.194 171.379C416.236 168.528 413.053 165.612 409.807 162.639C404.484 157.763 398.992 152.732 394.047 147.584C388.774 142.094 383.754 135.778 378.939 129.72C376.23 126.312 373.586 122.985 370.998 119.933ZM387.809 123.768C392.346 129.491 396.72 135.008 401.721 140.215C406.514 145.205 411.457 149.724 416.529 154.362C419.825 157.376 423.176 160.441 426.576 163.717C434.937 171.772 443 180.599 448.831 191.399C460.428 212.876 464.17 237.258 466.423 260.518C468.688 283.905 470.785 309.456 462.467 333.015C458.259 344.936 451.272 355.084 443.673 364.386C439.877 369.032 435.869 373.537 431.947 377.945L431.936 377.957C427.985 382.397 424.121 386.74 420.483 391.189C416.906 395.564 413.47 400.123 409.959 404.781L409.83 404.951C406.297 409.638 402.687 414.423 398.899 419.033C391.322 428.253 382.818 437.049 372.094 443.567C352.481 455.487 329.305 458.802 307.856 461.871C306.14 462.116 304.435 462.36 302.744 462.607C301.32 462.815 299.887 463.026 298.447 463.239C276.882 466.424 253.604 469.863 231.23 464.117C219.156 461.017 208.57 455.072 198.734 448.536C194.351 445.623 190.044 442.542 185.821 439.521C185.309 439.155 184.799 438.789 184.289 438.425C179.543 435.034 174.883 431.738 170.128 428.704C165.352 425.656 160.309 422.847 155.106 420.003C154.338 419.584 153.566 419.163 152.791 418.741C148.359 416.326 143.827 413.856 139.434 411.242C129.1 405.096 119.006 397.86 111.43 387.566C103.893 377.323 99.6641 365.663 96.6881 353.928C94.9151 346.938 93.4987 339.476 92.1252 332.24C91.2547 327.654 90.4015 323.159 89.4858 318.933C84.6364 296.552 79.6152 273.296 81.2421 249.455C82.8759 225.514 88.0344 201.388 99.2152 179.664C110.376 157.978 126.327 138.669 145.921 124.008C164.256 110.288 186.29 103.464 207.079 97.0258C208.332 96.6378 209.58 96.2512 210.822 95.8646C232.714 89.0539 255.099 83.7857 278.392 82.6514C280.62 82.5429 282.883 82.419 285.173 82.2937C306.455 81.1287 330.121 79.8333 350.733 89.5026C362.432 94.9909 371.308 103.846 379.115 113.055C382.195 116.687 385.032 120.266 387.809 123.768Z" fill="black"/>
</svg>
