<svg width="501" height="501" viewBox="0 0 501 501" fill="none" xmlns="http://www.w3.org/2000/svg">
<path fill-rule="evenodd" clip-rule="evenodd" d="M388.707 313.239C417.037 253.584 397.792 183.646 349.759 137.833C302.941 93.1788 233.862 81.301 176.476 110.849C116.796 141.578 79.6174 205.148 90.6661 271.198C102.001 338.958 156.887 391.095 224.955 400.695C292.753 410.258 359.364 375.028 388.707 313.239ZM351.998 135.485C400.844 182.074 420.679 253.477 391.638 314.631C361.676 377.722 293.681 413.665 224.501 403.908C155.072 394.115 99.041 340.929 87.4664 271.734C76.1526 204.098 114.241 139.245 174.991 107.965C233.68 77.7456 304.242 89.9361 351.998 135.485Z" fill="black"/>
<path fill-rule="evenodd" clip-rule="evenodd" d="M327.084 164.219C315.288 151.934 302.65 140.378 287.123 134.181C271.408 127.909 254.051 126.604 237.074 128.26C220.369 129.89 204.231 135.274 189.704 143.716C175.492 151.975 164.41 164.216 153.495 176.89C151.717 178.955 149.908 180.991 148.103 183.023C144.136 187.489 140.187 191.934 136.621 196.62C131.459 203.401 127.223 210.535 125.12 218.606C121.384 232.94 124.754 247.858 128.144 262.871C128.601 264.893 129.058 266.917 129.498 268.941C133.081 285.419 136.969 301.743 146.225 315.414C155.487 329.095 168.676 339.642 183.056 348.114C197.148 356.417 212.896 360.864 229.104 364.172C230.873 364.533 232.641 364.905 234.408 365.276C249.673 368.484 264.856 371.675 279.41 367.857C295.72 363.579 309.007 351.863 321.577 339.945C333.602 328.545 343.383 315.176 350.588 300.256C357.797 285.329 362.857 269.463 363.578 253.03C364.303 236.515 361.092 220.039 354.797 204.706C348.542 189.469 338.589 176.201 327.084 164.219ZM288.227 131.401C304.391 137.852 317.403 149.82 329.241 162.149C340.903 174.294 351.12 187.872 357.566 203.574C364.01 219.271 367.314 236.179 366.569 253.167C365.825 270.126 360.609 286.396 353.285 301.562C345.922 316.809 335.925 330.472 323.639 342.12C311.113 353.995 297.321 366.255 280.176 370.753C264.891 374.762 248.976 371.408 233.821 368.213C232.04 367.837 230.269 367.464 228.512 367.105C212.189 363.773 196.058 359.246 181.54 350.692C166.935 342.087 153.345 331.265 143.747 317.088C134.123 302.873 130.145 285.996 126.573 269.571C126.141 267.582 125.686 265.576 125.228 263.555C121.846 248.63 118.29 232.938 122.223 217.846C124.465 209.242 128.952 201.747 134.237 194.804C137.874 190.027 141.949 185.439 145.954 180.93C147.74 178.919 149.512 176.924 151.225 174.934C162.127 162.275 173.499 149.668 188.195 141.127C203.075 132.481 219.624 126.954 236.777 125.281C254.079 123.593 271.945 124.902 288.227 131.401Z" fill="black"/>
<path fill-rule="evenodd" clip-rule="evenodd" d="M113.063 210.64C106.594 229.501 101.334 248.848 103.202 268.332C105.092 288.05 113.032 306.817 123.852 323.603C134.497 340.119 148.748 354.034 165.319 364.634C181.53 375.004 200.209 379.982 219.25 384.554C222.352 385.299 225.441 386.091 228.522 386.881C235.297 388.618 242.04 390.347 248.828 391.55C258.653 393.29 268.348 393.878 277.876 391.743C294.799 387.952 308.522 376.453 322.334 364.881C324.194 363.322 326.056 361.762 327.928 360.219C343.161 347.662 358.071 334.87 367.343 317.911C376.622 300.939 380.536 281.56 381.652 262.051C382.745 242.934 378.937 224.158 373.698 205.513C373.126 203.479 372.566 201.439 372.006 199.401C367.168 181.792 362.355 164.277 350.583 151.172C337.392 136.486 318.078 128.932 298.938 122.231C280.629 115.821 261.472 112.801 242.08 113.294C222.681 113.786 203.453 117.019 185.961 125.072C168.381 133.165 152.951 145.334 140.361 160.101C127.851 174.776 119.372 192.245 113.063 210.64ZM99.7165 268.671C97.7725 248.389 103.259 228.432 109.752 209.504C116.147 190.858 124.808 172.948 137.7 157.825C150.587 142.708 166.418 130.211 184.501 121.885C202.553 113.575 222.284 110.288 241.995 109.787C261.811 109.284 281.39 112.37 300.096 118.919C319.169 125.596 339.32 133.386 353.187 148.824C365.55 162.587 370.584 180.951 375.377 198.439C375.94 200.494 376.5 202.537 377.069 204.559C382.345 223.336 386.274 242.553 385.147 262.248C384.014 282.062 380.029 302.007 370.414 319.593C360.772 337.227 345.335 350.409 330.151 362.926C328.312 364.442 326.467 365.99 324.609 367.55C310.884 379.066 296.454 391.175 278.637 395.166C268.48 397.442 258.273 396.786 248.214 395.004C241.293 393.777 234.335 391.994 227.495 390.24C224.445 389.458 221.419 388.683 218.43 387.965C199.411 383.399 180.196 378.314 163.432 367.591C146.46 356.734 131.841 342.468 120.91 325.508C109.883 308.401 101.675 289.102 99.7165 268.671Z" fill="black"/>
<path fill-rule="evenodd" clip-rule="evenodd" d="M300.028 206.39C298.268 204.944 296.482 203.469 294.787 201.917C293.125 200.396 291.526 198.785 289.955 197.201L289.831 197.076C288.295 195.526 286.785 194.003 285.229 192.563C282.034 189.607 278.73 187.087 274.868 185.579C271.038 184.084 266.937 183.801 262.592 183.869C261.104 183.892 259.558 183.96 257.986 184.028C255.087 184.154 252.098 184.284 249.221 184.15C246.332 184.015 243.367 183.635 240.483 183.266C238.897 183.063 237.334 182.863 235.822 182.708C231.457 182.262 227.277 182.155 223.228 183.182C214.791 185.32 207.112 190.227 200.713 196.315C195.509 201.268 192.172 207.645 188.707 214.268C188.035 215.553 187.357 216.847 186.661 218.141C185.816 219.711 184.957 221.232 184.105 222.739C182.769 225.101 181.454 227.429 180.249 229.853C178.306 233.762 176.771 237.703 176.172 241.895C174.956 250.411 177.047 259.1 179.537 267.72C181.957 276.102 185.4 284.102 190.437 291.12C195.504 298.18 201.654 304.443 209.014 308.856C215.116 312.515 222.044 314.116 229.237 315.777C230.56 316.083 231.892 316.391 233.229 316.713C235.177 317.184 237.127 317.728 239.051 318.264C239.273 318.326 239.495 318.388 239.716 318.45C241.866 319.048 243.984 319.628 246.098 320.098C250.328 321.04 254.443 321.523 258.517 320.859C262.597 320.195 266.365 318.472 270.065 316.266C272.514 314.805 274.853 313.187 277.226 311.544C278.482 310.675 279.748 309.798 281.046 308.936C288.041 304.282 294.554 299.213 300.135 293.067C306.029 286.576 311.766 280.099 314.521 272.182C316.923 265.279 316.662 257.871 316.393 250.196C316.351 249.006 316.309 247.809 316.277 246.606C316.228 244.807 316.224 243.041 316.219 241.293C316.212 238.526 316.205 235.8 316.025 233.049C315.735 228.636 315.003 224.454 313.168 220.635C311.343 216.835 308.492 213.718 305.188 210.752C303.615 209.34 301.963 207.981 300.281 206.599L300.028 206.39ZM307.171 208.541C310.592 211.613 313.778 215.041 315.851 219.357C317.919 223.663 318.694 228.273 318.996 232.869C319.18 235.684 319.189 238.61 319.198 241.468C319.204 243.197 319.209 244.902 319.253 246.541C319.284 247.696 319.326 248.865 319.369 250.042C319.644 257.674 319.933 265.701 317.333 273.173C314.35 281.748 308.178 288.65 302.344 295.074C296.54 301.466 289.811 306.688 282.704 311.417C281.504 312.215 280.285 313.058 279.049 313.913C276.62 315.593 274.128 317.317 271.6 318.824C267.74 321.126 263.606 323.049 259.01 323.798C254.401 324.549 249.861 323.983 245.465 323.004C243.267 322.514 241.08 321.915 238.931 321.317C238.709 321.256 238.488 321.194 238.268 321.132C236.337 320.594 234.438 320.064 232.544 319.607C231.27 319.299 229.981 319.003 228.682 318.704C221.498 317.049 214.037 315.331 207.492 311.407C199.695 306.732 193.26 300.147 188.021 292.847C182.733 285.479 179.164 277.144 176.676 268.532C174.187 259.914 171.909 250.67 173.225 241.459C173.887 236.827 175.569 232.565 177.581 228.517C178.809 226.047 180.207 223.571 181.58 221.14C182.424 219.646 183.258 218.169 184.037 216.721C184.697 215.495 185.349 214.246 186.006 212.988C189.465 206.366 193.063 199.475 198.655 194.154C205.313 187.818 213.425 182.592 222.483 180.296C227.039 179.141 231.633 179.289 236.11 179.747C237.789 179.918 239.425 180.129 241.04 180.336C243.829 180.695 246.556 181.046 249.345 181.176C252.107 181.305 254.832 181.185 257.627 181.062C259.232 180.991 260.859 180.919 262.53 180.892C266.997 180.822 271.563 181.099 275.939 182.807C280.309 184.514 283.937 187.322 287.245 190.383C288.85 191.868 290.4 193.431 291.923 194.968L292.064 195.111C293.641 196.702 295.192 198.261 296.792 199.726C298.419 201.216 300.147 202.644 301.912 204.095C302.001 204.169 302.091 204.242 302.18 204.316C303.849 205.688 305.548 207.084 307.171 208.541Z" fill="black"/>
<path fill-rule="evenodd" clip-rule="evenodd" d="M230.538 169.164C225.396 168.654 220.485 168.63 215.83 170.234C207.237 173.195 200.762 180.2 194.248 187.247C193.58 187.97 192.911 188.694 192.239 189.414C185.487 196.65 180.171 204.942 175.392 213.727C175.142 214.188 174.891 214.648 174.641 215.107C169.952 223.709 165.341 232.165 163.84 241.554C162.217 251.7 163.036 262.219 166.005 272.073C168.947 281.841 174.419 290.692 181.039 298.57C187.461 306.213 195.756 311.808 204.236 317.491C206.004 318.675 207.716 319.889 209.415 321.094C211.973 322.909 214.504 324.704 217.162 326.353C221.522 329.058 225.987 331.205 230.871 332.034C235.729 332.858 240.597 332.176 245.591 330.988C247.715 330.483 249.837 329.893 251.987 329.295C252.366 329.189 252.746 329.084 253.126 328.978C255.656 328.278 258.221 327.589 260.803 327.06C263.347 326.539 265.922 326.139 268.469 325.756C268.744 325.715 269.018 325.674 269.292 325.633C271.568 325.291 273.816 324.954 276.036 324.543C281.008 323.621 285.731 322.341 289.998 319.9C298.203 315.206 304.112 307.488 310.088 299.683C310.442 299.221 310.796 298.758 311.151 298.296C311.588 297.727 312.026 297.158 312.464 296.59C318.421 288.864 324.306 281.23 326.673 272.133C327.925 267.317 327.951 262.357 327.537 257.257C327.331 254.707 327.016 252.142 326.697 249.548L326.681 249.421C326.367 246.877 326.05 244.303 325.835 241.734C325.616 239.116 325.506 236.474 325.397 233.864L325.396 233.833C325.286 231.203 325.177 228.605 324.961 226.039C324.531 220.909 323.68 215.997 321.605 211.45C317.391 202.212 309.513 195.195 301.539 188.378C293.732 181.704 285.521 175.507 275.982 172.474C271.346 170.999 266.516 170.675 261.52 170.686C259.644 170.691 257.715 170.744 255.763 170.799C252.611 170.886 249.403 170.976 246.276 170.861C242.958 170.74 239.533 170.289 236.187 169.848C234.267 169.595 232.372 169.346 230.538 169.164ZM236.717 167.356C239.96 167.785 243.143 168.206 246.368 168.324C249.443 168.437 252.474 168.351 255.544 168.264C257.51 168.208 259.493 168.152 261.514 168.148C266.602 168.136 271.738 168.461 276.745 170.053C286.799 173.25 295.335 179.74 303.177 186.445C311.1 193.218 319.422 200.57 323.904 210.393C326.154 215.325 327.04 220.571 327.481 225.826C327.701 228.454 327.812 231.105 327.922 233.726L327.922 233.731C328.032 236.359 328.14 238.956 328.355 241.521C328.565 244.041 328.877 246.572 329.193 249.132L329.206 249.236C329.525 251.823 329.846 254.439 330.057 257.051C330.481 262.273 330.475 267.56 329.119 272.775C326.615 282.398 320.416 290.431 314.527 298.062C314.067 298.659 313.608 299.254 313.153 299.846C312.774 300.34 312.394 300.837 312.012 301.335C306.117 309.041 299.914 317.149 291.25 322.106C286.622 324.753 281.576 326.097 276.495 327.039C274.23 327.459 271.937 327.803 269.667 328.143C269.392 328.185 269.118 328.226 268.844 328.267C266.296 328.65 263.78 329.041 261.308 329.547C258.818 330.057 256.324 330.727 253.798 331.426C253.423 331.53 253.047 331.634 252.67 331.739C250.522 332.337 248.348 332.941 246.174 333.458C241.059 334.675 235.802 335.445 230.45 334.537C225.11 333.631 220.325 331.299 215.834 328.513C213.14 326.842 210.463 324.945 207.835 323.083C206.145 321.886 204.475 320.703 202.833 319.602C194.4 313.952 185.797 308.17 179.107 300.208C172.337 292.151 166.654 282.999 163.585 272.808C160.511 262.604 159.657 251.696 161.343 241.151C162.917 231.315 167.726 222.498 172.364 213.995C172.635 213.499 172.905 213.004 173.174 212.51C178.005 203.628 183.439 195.132 190.394 187.678C191.068 186.956 191.746 186.221 192.429 185.481C198.857 178.513 205.777 171.014 215.01 167.833C220.183 166.05 225.531 166.116 230.787 166.637C232.8 166.837 234.769 167.098 236.717 167.356Z" fill="black"/>
<path fill-rule="evenodd" clip-rule="evenodd" d="M349.248 287.758C353.255 282.176 356.548 276.535 357.793 270.106C360.091 258.237 356.316 246.115 352.518 233.92C352.128 232.669 351.738 231.416 351.354 230.163C347.497 217.567 341.466 205.923 334.51 194.569C334.145 193.974 333.781 193.379 333.418 192.784C326.614 181.655 319.924 170.714 310.093 162.732C299.468 154.106 286.789 148.044 273.448 144.899C260.225 141.782 246.376 142.19 232.886 144.567C219.8 146.873 207.831 152.699 195.637 158.682C193.095 159.929 190.557 161.092 188.036 162.246C184.243 163.984 180.489 165.703 176.819 167.666C170.801 170.886 165.354 174.598 161.151 179.671C156.971 184.717 154.521 190.777 152.57 197.32C151.74 200.103 151.01 202.94 150.27 205.814C150.14 206.32 150.009 206.828 149.878 207.337C149.004 210.716 148.093 214.13 146.987 217.456C145.896 220.732 144.645 223.964 143.393 227.153C143.258 227.497 143.123 227.84 142.988 228.183C141.868 231.031 140.762 233.845 139.761 236.675C137.519 243.015 135.854 249.307 135.833 255.847C135.792 268.422 140.766 280.368 145.796 292.448C146.094 293.163 146.392 293.879 146.689 294.596C147.055 295.479 147.42 296.362 147.784 297.245C152.736 309.25 157.628 321.113 166.548 329.896C171.27 334.547 176.976 337.88 183.134 340.8C186.213 342.261 189.38 343.606 192.585 344.966L192.742 345.032C195.885 346.365 199.065 347.714 202.172 349.178C205.337 350.67 208.458 352.302 211.542 353.915L211.578 353.934C214.685 355.559 217.754 357.164 220.856 358.624C227.061 361.545 233.293 363.836 239.917 364.475C253.376 365.774 266.709 361.375 279.875 356.731C292.764 352.185 305.372 346.856 315.213 337.89C319.997 333.532 323.583 328.186 326.891 322.425C328.133 320.262 329.355 318.004 330.589 315.72C332.584 312.032 334.614 308.278 336.826 304.752C339.172 301.011 341.969 297.368 344.702 293.808C346.271 291.765 347.818 289.749 349.248 287.758ZM347.226 296.078C344.574 299.527 341.972 302.912 339.691 306.548C337.516 310.015 335.6 313.562 333.659 317.155C332.416 319.457 331.162 321.778 329.824 324.109C326.455 329.976 322.664 335.675 317.498 340.381C307.125 349.831 293.964 355.339 281.015 359.906C267.934 364.52 253.92 369.207 239.608 367.827C232.423 367.134 225.783 364.659 219.427 361.667C216.25 360.172 213.117 358.533 210.021 356.914L210.016 356.911C206.911 355.287 203.843 353.682 200.741 352.221C197.696 350.786 194.568 349.459 191.405 348.118L191.276 348.063C188.08 346.708 184.849 345.335 181.696 343.84C175.39 340.849 169.295 337.321 164.181 332.286C154.746 322.995 149.601 310.505 144.714 298.64C144.331 297.712 143.951 296.788 143.57 295.87C143.252 295.104 142.932 294.335 142.61 293.564C137.642 281.644 132.413 269.1 132.456 255.819C132.479 248.726 134.285 242.021 136.576 235.541C137.598 232.653 138.726 229.783 139.843 226.942C139.978 226.598 140.113 226.255 140.248 225.912C141.499 222.723 142.722 219.565 143.781 216.381C144.849 213.173 145.735 209.855 146.608 206.481C146.737 205.979 146.867 205.477 146.996 204.973C147.736 202.101 148.484 199.195 149.333 196.346C151.33 189.645 153.938 183.078 158.543 177.519C163.139 171.972 169.011 168.014 175.211 164.698C178.93 162.708 182.897 160.889 186.793 159.102C189.298 157.953 191.773 156.817 194.134 155.659C206.259 149.711 218.649 143.654 232.283 141.251C246.078 138.821 260.413 138.371 274.209 141.623C288.024 144.879 301.174 151.159 312.217 160.125C322.518 168.488 329.49 179.898 336.214 190.903C336.606 191.545 336.998 192.186 337.389 192.824C344.422 204.304 350.61 216.22 354.583 229.194C354.969 230.452 355.365 231.722 355.765 233.002C359.528 245.045 363.578 258.008 361.109 270.76C359.725 277.906 356.093 284.021 351.997 289.727C350.428 291.913 348.818 294.007 347.226 296.078Z" fill="black"/>
<path fill-rule="evenodd" clip-rule="evenodd" d="M299.548 168.636C295.589 163.967 291.428 159.9 286.149 157.425C276.405 152.854 265.145 153.458 253.818 154.065C252.656 154.127 251.492 154.19 250.33 154.246C238.644 154.817 227.316 157.467 216.039 160.977C215.448 161.161 214.857 161.344 214.267 161.527C203.218 164.955 192.354 168.326 183.372 175.047C173.665 182.311 165.731 191.904 160.172 202.704C154.661 213.408 152.057 225.421 151.227 237.554C150.422 249.324 152.891 260.902 155.447 272.706C155.98 275.167 156.441 277.606 156.899 280.028C157.587 283.674 158.269 287.281 159.179 290.869C160.67 296.754 162.709 302.254 166.186 306.98C169.645 311.681 174.348 315.114 179.574 318.222C181.797 319.544 184.087 320.792 186.408 322.057C186.817 322.279 187.227 322.503 187.637 322.727C190.365 324.218 193.115 325.747 195.747 327.426C198.339 329.08 200.859 330.863 203.342 332.637C203.609 332.829 203.877 333.02 204.144 333.211C206.361 334.797 208.551 336.364 210.778 337.843C215.767 341.158 220.838 343.965 226.473 345.412C237.308 348.193 248.672 346.519 260.163 344.826C260.843 344.726 261.524 344.625 262.206 344.526C263.045 344.403 263.885 344.283 264.723 344.162C276.133 342.52 287.408 340.898 296.886 335.136C301.904 332.086 305.997 327.901 309.83 323.237C311.746 320.905 313.583 318.472 315.439 316.009L315.53 315.889C317.351 313.473 319.193 311.03 321.118 308.675C323.08 306.276 325.153 303.946 327.202 301.643L327.227 301.615C329.292 299.295 331.331 297.003 333.253 294.651C337.096 289.947 340.402 285.082 342.367 279.518C346.36 268.214 345.412 255.774 344.218 243.425C343.049 231.334 341.145 219.316 335.514 208.885C332.777 203.815 328.933 199.56 324.671 195.454C323.07 193.912 321.384 192.368 319.678 190.806C316.923 188.283 314.119 185.716 311.551 183.042C308.826 180.205 306.281 177.001 303.794 173.871C302.367 172.074 300.96 170.302 299.548 168.636ZM306.29 172.194C308.699 175.23 311.062 178.21 313.711 180.967C316.237 183.597 318.887 186.021 321.571 188.476C323.291 190.05 325.024 191.636 326.749 193.297C331.089 197.479 335.194 201.987 338.15 207.462C344.085 218.456 346.025 230.99 347.2 243.136C348.386 255.406 349.437 268.495 345.191 280.515C343.06 286.551 339.509 291.727 335.572 296.546C333.604 298.955 331.522 301.294 329.465 303.606L329.462 303.609C327.399 305.928 325.36 308.22 323.437 310.571C321.549 312.88 319.738 315.283 317.906 317.713L317.831 317.812C315.98 320.268 314.106 322.75 312.144 325.139C308.218 329.915 303.876 334.392 298.442 337.695C288.415 343.79 276.546 345.493 265.271 347.11C264.39 347.236 263.511 347.362 262.638 347.49C261.91 347.596 261.179 347.704 260.445 347.812C249.105 349.487 237.171 351.25 225.728 348.313C219.616 346.744 214.219 343.726 209.121 340.338C206.848 338.828 204.614 337.23 202.403 335.649C202.135 335.457 201.868 335.266 201.6 335.075C199.117 333.301 196.655 331.558 194.135 329.951C191.597 328.331 188.925 326.844 186.201 325.356C185.797 325.135 185.391 324.914 184.984 324.692C182.665 323.429 180.319 322.15 178.043 320.797C172.691 317.614 167.585 313.935 163.774 308.756C159.971 303.588 157.812 297.668 156.275 291.606C155.353 287.969 154.631 284.156 153.922 280.412C153.466 278.005 153.015 275.626 152.52 273.34C149.978 261.602 147.4 249.612 148.239 237.349C149.088 224.941 151.759 212.501 157.509 201.333C163.265 190.15 171.489 180.199 181.578 172.649C190.988 165.607 202.316 162.096 213.242 158.709C213.879 158.512 214.515 158.314 215.149 158.117C226.55 154.568 238.147 151.843 250.184 151.255C251.351 151.198 252.53 151.133 253.72 151.069C264.908 150.459 276.952 149.803 287.421 154.713C293.288 157.464 297.786 161.927 301.832 166.699C303.382 168.527 304.845 170.371 306.29 172.194Z" fill="black"/>
<path fill-rule="evenodd" clip-rule="evenodd" d="M338.15 109.603C331.311 101.537 324.306 94.7402 315.541 90.6286C299.086 82.9093 280.033 83.9203 260.161 84.9747C258.158 85.0809 256.147 85.1876 254.129 85.2859C234.012 86.2656 214.455 90.8271 194.88 96.917C193.887 97.2262 192.895 97.5339 191.905 97.841C172.53 103.851 153.928 109.622 138.584 121.104C121.941 133.557 108.321 150.018 98.7743 168.567C89.3451 186.888 84.8561 207.519 83.4261 228.475C82.0503 248.635 86.2789 268.519 90.7509 289.158C91.7101 293.585 92.5214 297.881 93.3206 302.113C94.5071 308.396 95.6671 314.538 97.2456 320.762C99.815 330.893 103.281 340.171 109.104 348.083C114.872 355.922 122.773 361.726 131.794 367.092C135.631 369.375 139.584 371.529 143.633 373.736C144.348 374.125 145.066 374.517 145.787 374.911C150.548 377.513 155.403 380.213 160.064 383.186C164.641 386.107 169.079 389.25 173.41 392.344C173.878 392.678 174.344 393.012 174.809 393.344C178.681 396.114 182.469 398.824 186.32 401.383C194.939 407.111 203.538 411.849 213.009 414.281C231.454 419.018 250.849 416.167 271.017 413.202C272.158 413.034 273.303 412.866 274.449 412.699C275.882 412.49 277.312 412.284 278.738 412.079C298.753 409.198 317.973 406.432 334.095 396.634C342.536 391.503 349.486 384.425 356.101 376.375C359.408 372.35 362.583 368.145 365.825 363.844L365.994 363.619C369.161 359.417 372.396 355.126 375.782 350.984C379.234 346.763 382.876 342.67 386.44 338.665L386.497 338.601C390.102 334.549 393.626 330.587 396.942 326.528C403.575 318.409 409.157 310.158 412.459 300.807C419.23 281.627 417.652 260.418 415.56 238.818C413.522 217.773 410.225 197.199 400.629 179.427C396.019 170.888 389.508 163.656 382.132 156.55C379.432 153.949 376.528 151.288 373.566 148.575C368.708 144.125 363.696 139.535 359.184 134.836C354.372 129.827 349.791 124.063 345.397 118.535C342.925 115.425 340.512 112.389 338.15 109.603ZM353.491 113.103C357.631 118.326 361.623 123.36 366.187 128.112C370.561 132.666 375.071 136.79 379.7 141.022C382.707 143.773 385.765 146.569 388.868 149.558C396.499 156.91 403.856 164.965 409.178 174.82C419.76 194.419 423.175 216.67 425.231 237.896C427.298 259.237 429.212 282.554 421.621 304.053C417.78 314.932 411.405 324.193 404.471 332.681C401.007 336.921 397.349 341.032 393.77 345.054L393.76 345.065C390.154 349.117 386.628 353.08 383.308 357.14C380.044 361.133 376.908 365.293 373.704 369.543L373.587 369.699C370.363 373.976 367.069 378.343 363.612 382.55C356.698 390.963 348.937 398.99 339.15 404.938C321.252 415.816 300.103 418.841 280.53 421.642C278.964 421.866 277.408 422.088 275.865 422.313C274.565 422.503 273.258 422.696 271.944 422.89C252.264 425.797 231.022 428.935 210.605 423.692C199.586 420.862 189.926 415.437 180.95 409.472C176.95 406.814 173.02 404.003 169.167 401.246C168.7 400.912 168.233 400.579 167.768 400.246C163.438 397.151 159.185 394.143 154.845 391.375C150.487 388.594 145.885 386.03 141.137 383.435C140.436 383.052 139.732 382.668 139.024 382.283C134.98 380.079 130.844 377.825 126.835 375.44C117.405 369.831 108.194 363.228 101.281 353.834C94.4028 344.487 90.5434 333.846 87.8277 323.138C86.2098 316.759 84.9172 309.949 83.6638 303.346C82.8694 299.161 82.0908 295.059 81.2551 291.202C76.8298 270.779 72.2477 249.556 73.7324 227.8C75.2233 205.952 79.9307 183.935 90.1338 164.111C100.319 144.322 114.875 126.701 132.755 113.322C149.487 100.801 169.594 94.5745 188.565 88.6991C189.708 88.345 190.848 87.9923 191.981 87.6395C211.959 81.4242 232.386 76.6168 253.643 75.5816C255.676 75.4826 257.74 75.3696 259.83 75.2552C279.252 74.1921 300.848 73.01 319.657 81.8338C330.333 86.8421 338.433 94.9233 345.558 103.327C348.368 106.641 350.958 109.907 353.491 113.103Z" fill="black"/>
</svg>
