<svg width="1080" height="1080" viewBox="0 0 1080 1080" fill="none" xmlns="http://www.w3.org/2000/svg">
<g clip-path="url(#clip0_14380_25295)">
<rect width="1080" height="1080" rx="200" fill="white"/>
<path fill-rule="evenodd" clip-rule="evenodd" d="M917.013 711.55C994.089 549.248 941.73 358.972 811.048 234.33C683.672 112.842 495.731 80.5264 339.604 160.916C177.235 244.519 76.0838 417.47 106.144 597.171C136.981 781.521 286.308 923.368 471.498 949.487C655.954 975.503 837.181 879.655 917.013 711.55ZM817.14 227.943C950.033 354.694 1004 548.957 924.986 715.335C843.471 886.984 658.479 984.774 470.264 958.227C281.371 931.585 128.929 786.883 97.4382 598.628C66.6573 414.616 170.282 238.172 335.564 153.069C495.238 70.8534 687.211 104.019 817.14 227.943Z" fill="black"/>
<path fill-rule="evenodd" clip-rule="evenodd" d="M749.357 306.119C717.265 272.694 682.88 241.253 640.636 224.393C597.882 207.33 550.66 203.78 504.47 208.286C459.023 212.719 415.116 227.368 375.591 250.336C336.926 272.805 306.775 306.108 277.079 340.592C272.241 346.21 267.321 351.749 262.411 357.276C251.617 369.428 240.874 381.522 231.17 394.269C217.126 412.719 205.602 432.128 199.88 454.086C189.718 493.084 198.884 533.669 208.11 574.515C209.352 580.016 210.596 585.522 211.793 591.03C221.541 635.86 232.118 680.272 257.299 717.465C282.5 754.687 318.382 783.381 357.505 806.432C395.845 829.022 438.69 841.12 482.788 850.121C487.599 851.103 492.41 852.114 497.217 853.125C538.747 861.853 580.055 870.534 619.654 860.147C664.028 848.506 700.175 816.631 734.375 784.208C767.09 753.193 793.702 716.819 813.305 676.226C832.916 635.617 846.684 592.45 848.645 547.741C850.616 502.811 841.881 457.985 824.756 416.269C807.738 374.813 780.657 338.717 749.357 306.119ZM643.641 216.831C687.616 234.381 723.02 266.942 755.227 300.485C786.953 333.529 814.752 370.469 832.289 413.19C849.82 455.895 858.809 501.895 856.782 548.115C854.758 594.253 840.566 638.518 820.64 679.78C800.608 721.261 773.41 758.434 739.985 790.123C705.907 822.431 668.382 855.788 621.736 868.024C580.15 878.933 536.853 869.806 495.619 861.113C490.774 860.092 485.957 859.076 481.175 858.1C436.766 849.035 392.88 836.719 353.382 813.446C313.647 790.035 276.672 760.591 250.558 722.021C224.374 683.347 213.552 637.43 203.835 592.744C202.658 587.333 201.421 581.874 200.176 576.377C190.974 535.771 181.299 493.077 191.999 452.017C198.098 428.61 210.307 408.218 224.686 389.328C234.58 376.331 245.666 363.849 256.562 351.581C261.421 346.111 266.242 340.683 270.903 335.271C300.564 300.827 331.504 266.528 371.488 243.293C411.97 219.769 456.994 204.733 503.662 200.181C550.736 195.588 599.343 199.151 643.641 216.831Z" fill="black"/>
<path fill-rule="evenodd" clip-rule="evenodd" d="M167.078 432.413C149.477 483.727 135.168 536.364 140.249 589.372C145.391 643.019 166.994 694.077 196.431 739.746C225.394 784.68 264.165 822.538 309.248 851.377C353.352 879.59 404.172 893.134 455.978 905.573C464.418 907.599 472.82 909.753 481.204 911.903C499.636 916.629 517.98 921.333 536.449 924.605C563.179 929.341 589.557 930.94 615.479 925.132C661.52 914.818 698.857 883.534 736.434 852.048C741.495 847.807 746.561 843.563 751.652 839.365C793.097 805.202 833.662 770.398 858.889 724.26C884.135 678.086 894.781 625.361 897.817 572.286C900.793 520.274 890.432 469.192 876.178 418.465C874.623 412.93 873.098 407.381 871.575 401.835C858.411 353.928 845.319 306.276 813.291 270.621C777.401 230.665 724.855 210.113 672.781 191.882C622.969 174.442 570.848 166.227 518.09 167.567C465.311 168.908 412.999 177.702 365.408 199.612C317.581 221.631 275.599 254.739 241.347 294.915C207.31 334.839 184.244 382.366 167.078 432.413ZM130.767 590.295C125.478 535.116 140.405 480.818 158.069 429.322C175.469 378.592 199.031 329.865 234.107 288.722C269.169 247.595 312.238 213.593 361.438 190.942C410.551 168.332 464.233 159.39 517.86 158.027C571.773 156.658 625.039 165.055 675.933 182.873C727.822 201.039 782.648 222.231 820.376 264.233C854.01 301.678 867.705 351.639 880.747 399.219C882.279 404.81 883.803 410.368 885.348 415.869C899.703 466.954 910.393 519.236 907.328 572.82C904.244 626.726 893.403 680.989 867.242 728.836C841.011 776.812 799.012 812.677 757.7 846.731C752.698 850.855 747.678 855.068 742.623 859.309C705.283 890.642 666.023 923.586 617.548 934.445C589.915 940.635 562.147 938.851 534.78 934.002C515.95 930.666 497.017 925.813 478.409 921.043C470.111 918.916 461.878 916.805 453.747 914.853C402.003 902.429 349.723 888.596 304.115 859.422C257.939 829.884 218.167 791.07 188.426 744.929C158.427 698.387 136.095 645.879 130.767 590.295Z" fill="black"/>
<path fill-rule="evenodd" clip-rule="evenodd" d="M675.746 420.851C670.959 416.916 666.099 412.902 661.488 408.681C656.967 404.541 652.615 400.161 648.341 395.849L648.005 395.511C643.825 391.293 639.718 387.149 635.484 383.232C626.791 375.189 617.802 368.334 607.295 364.232C596.875 360.163 585.718 359.392 573.896 359.578C569.848 359.642 565.642 359.825 561.366 360.011C553.477 360.355 545.346 360.709 537.518 360.343C529.658 359.976 521.593 358.943 513.744 357.938C509.429 357.385 505.179 356.841 501.064 356.42C489.189 355.206 477.817 354.916 466.801 357.708C443.844 363.527 422.953 376.875 405.545 393.441C391.386 406.915 382.307 424.266 372.879 442.284C371.05 445.779 369.208 449.299 367.313 452.821C365.016 457.092 362.676 461.23 360.36 465.329C356.726 471.757 353.147 478.089 349.868 484.684C344.582 495.319 340.407 506.043 338.777 517.447C335.467 540.616 341.156 564.254 347.93 587.708C354.517 610.511 363.882 632.276 377.586 651.371C391.371 670.579 408.103 687.619 428.128 699.625C444.73 709.58 463.578 713.934 483.149 718.455C486.748 719.287 490.371 720.123 494.008 721.002C499.31 722.282 504.615 723.762 509.849 725.221C510.453 725.39 511.056 725.558 511.658 725.726C517.506 727.354 523.271 728.93 529.023 730.211C540.53 732.773 551.725 734.088 562.809 732.282C573.909 730.473 584.162 725.785 594.228 719.783C600.891 715.811 607.253 711.407 613.711 706.938C617.129 704.572 620.573 702.189 624.102 699.841C643.133 687.18 660.854 673.389 676.038 656.669C692.074 639.009 707.683 621.386 715.177 599.847C721.711 581.065 721.003 560.913 720.27 540.032C720.157 536.793 720.042 533.536 719.954 530.264C719.822 525.368 719.81 520.565 719.798 515.808C719.779 508.28 719.76 500.866 719.268 493.379C718.48 481.374 716.489 469.996 711.497 459.605C706.532 449.267 698.774 440.786 689.786 432.717C685.507 428.875 681.011 425.18 676.436 421.419L675.746 420.851ZM695.181 426.703C704.487 435.059 713.155 444.385 718.796 456.129C724.424 467.845 726.531 480.386 727.352 492.89C727.854 500.548 727.879 508.509 727.903 516.284C727.917 520.99 727.932 525.627 728.052 530.087C728.136 533.231 728.251 536.409 728.366 539.613C729.114 560.377 729.901 582.216 722.829 602.543C714.712 625.873 697.921 644.65 682.048 662.13C666.258 679.518 647.95 693.727 628.613 706.591C625.349 708.762 622.032 711.057 618.67 713.382C612.061 717.954 605.283 722.643 598.403 726.745C587.901 733.007 576.655 738.238 564.152 740.276C551.611 742.32 539.26 740.779 527.301 738.116C521.318 736.784 515.369 735.155 509.522 733.527C508.92 733.359 508.318 733.192 507.718 733.024C502.464 731.559 497.299 730.119 492.145 728.874C488.68 728.038 485.172 727.23 481.638 726.416C462.093 721.916 441.793 717.242 423.988 706.566C402.773 693.845 385.267 675.932 371.013 656.07C356.627 636.025 346.916 613.348 340.149 589.918C333.376 566.469 327.178 541.321 330.758 516.261C332.559 503.659 337.135 492.064 342.611 481.049C345.952 474.329 349.755 467.594 353.49 460.98C355.785 456.916 358.054 452.898 360.175 448.956C361.97 445.62 363.743 442.224 365.531 438.801C374.941 420.784 384.731 402.038 399.945 387.561C418.06 370.322 440.13 356.103 464.773 349.857C477.17 346.714 489.667 347.118 501.847 348.363C506.417 348.83 510.866 349.402 515.26 349.968C522.847 350.944 530.269 351.898 537.855 352.253C545.371 352.604 552.785 352.276 560.388 351.94C564.753 351.747 569.181 351.552 573.727 351.48C585.88 351.289 598.303 352.041 610.208 356.689C622.099 361.332 631.968 368.973 640.969 377.301C645.335 381.34 649.552 385.594 653.696 389.775L654.08 390.163C658.371 394.491 662.589 398.735 666.942 402.72C671.37 406.774 676.07 410.659 680.872 414.606C681.115 414.806 681.359 415.007 681.602 415.207C686.143 418.939 690.765 422.738 695.181 426.703Z" fill="black"/>
<path fill-rule="evenodd" clip-rule="evenodd" d="M486.689 319.571C472.699 318.183 459.337 318.119 446.673 322.483C423.293 330.539 405.677 349.597 387.956 368.769C386.137 370.737 384.316 372.706 382.489 374.665C364.119 394.352 349.657 416.911 336.655 440.813C335.974 442.065 335.292 443.316 334.611 444.566C321.853 467.968 309.31 490.975 305.224 516.518C300.809 544.122 303.039 572.741 311.114 599.552C319.119 626.125 334.008 650.206 352.018 671.641C369.49 692.434 392.057 707.657 415.129 723.116C419.94 726.34 424.596 729.642 429.22 732.921C436.179 737.857 443.065 742.741 450.298 747.228C462.158 754.586 474.307 760.429 487.595 762.683C500.81 764.925 514.054 763.069 527.642 759.838C533.422 758.463 539.195 756.857 545.044 755.231C546.075 754.944 547.108 754.657 548.143 754.37C555.025 752.465 562.005 750.589 569.029 749.15C575.949 747.733 582.956 746.647 589.886 745.604C590.634 745.492 591.38 745.38 592.126 745.268C598.317 744.34 604.434 743.423 610.473 742.303C623.999 739.794 636.85 736.313 648.459 729.671C670.781 716.901 686.859 695.902 703.116 674.669C704.079 673.411 705.043 672.153 706.008 670.895C707.198 669.345 708.39 667.799 709.582 666.253C725.787 645.233 741.8 624.464 748.238 599.715C751.646 586.613 751.716 573.116 750.591 559.24C750.028 552.303 749.173 545.327 748.303 538.268L748.26 537.922C747.407 531 746.544 523.998 745.96 517.008C745.364 509.885 745.064 502.698 744.767 495.596L744.764 495.512C744.465 488.357 744.168 481.289 743.582 474.309C742.411 460.351 740.096 446.988 734.452 434.617C722.985 409.484 701.553 390.392 679.857 371.845C658.617 353.688 636.28 336.828 610.326 328.575C597.712 324.564 584.571 323.681 570.98 323.713C565.877 323.725 560.626 323.871 555.318 324.019C546.742 324.257 538.014 324.5 529.505 324.189C520.478 323.859 511.162 322.632 502.058 321.433C496.833 320.745 491.679 320.066 486.689 319.571ZM503.498 314.651C512.322 315.819 520.981 316.965 529.756 317.286C538.123 317.592 546.368 317.359 554.72 317.123C560.07 316.971 565.465 316.819 570.964 316.806C584.805 316.773 598.78 317.659 612.403 321.991C639.755 330.688 662.978 348.344 684.315 366.585C705.871 385.013 728.512 405.015 740.705 431.74C746.828 445.159 749.236 459.432 750.437 473.729C751.037 480.878 751.338 488.092 751.636 495.222L751.637 495.235C751.936 502.386 752.231 509.452 752.814 516.431C753.387 523.284 754.236 530.17 755.094 537.135L755.129 537.419C755.997 544.457 756.871 551.575 757.447 558.68C758.599 572.89 758.583 587.273 754.893 601.461C748.083 627.641 731.216 649.498 715.194 670.259C713.941 671.883 712.693 673.5 711.456 675.112C710.424 676.456 709.39 677.807 708.353 679.163C692.314 700.127 675.438 722.186 651.864 735.673C639.274 742.876 625.546 746.531 611.722 749.095C605.559 750.238 599.321 751.173 593.145 752.099C592.398 752.211 591.651 752.323 590.905 752.435C583.975 753.478 577.128 754.541 570.404 755.918C563.628 757.306 556.843 759.127 549.971 761.029C548.951 761.312 547.928 761.596 546.902 761.881C541.058 763.507 535.143 765.152 529.228 766.559C515.312 769.868 501.01 771.963 486.449 769.494C471.92 767.029 458.902 760.685 446.682 753.104C439.353 748.557 432.072 743.398 424.921 738.332C420.323 735.075 415.779 731.855 411.311 728.862C388.369 713.489 364.963 697.758 346.761 676.095C328.343 654.175 312.882 629.277 304.531 601.552C296.168 573.79 293.844 544.113 298.433 515.423C302.713 488.662 315.798 464.675 328.417 441.542C329.153 440.192 329.888 438.846 330.619 437.501C343.764 413.336 358.547 390.221 377.469 369.942C379.304 367.976 381.148 365.978 383.007 363.963C400.496 345.008 419.321 324.605 444.44 315.949C458.516 311.099 473.065 311.279 487.365 312.697C492.843 313.24 498.2 313.95 503.498 314.651Z" fill="black"/>
<path fill-rule="evenodd" clip-rule="evenodd" d="M809.657 642.224C820.56 627.037 829.519 611.691 832.906 594.2C839.159 561.908 828.887 528.927 818.555 495.751C817.494 492.345 816.433 488.937 815.388 485.528C804.894 451.26 788.487 419.581 769.56 388.689C768.568 387.07 767.579 385.451 766.59 383.834C748.078 353.556 729.878 323.787 703.13 302.071C674.224 278.602 639.729 262.11 603.432 253.555C567.457 245.076 529.778 246.185 493.077 252.652C457.474 258.925 424.909 274.777 391.735 291.052C384.817 294.446 377.913 297.609 371.055 300.75C360.735 305.477 350.522 310.155 340.537 315.497C324.163 324.256 309.345 334.356 297.91 348.158C286.537 361.884 279.87 378.373 274.564 396.174C272.306 403.746 270.32 411.464 268.307 419.283C267.952 420.661 267.597 422.042 267.239 423.426C264.861 432.62 262.384 441.908 259.373 450.956C256.406 459.87 253.001 468.662 249.595 477.338C249.228 478.274 248.861 479.208 248.494 480.141C245.448 487.89 242.438 495.545 239.715 503.246C233.615 520.495 229.086 537.613 229.028 555.406C228.917 589.618 242.449 622.12 256.133 654.983C256.944 656.93 257.755 658.878 258.563 660.828C259.56 663.23 260.551 665.634 261.542 668.035C275.014 700.698 288.325 732.971 312.593 756.868C325.441 769.519 340.964 778.589 357.717 786.534C366.094 790.507 374.71 794.168 383.43 797.866L383.858 798.048C392.41 801.675 401.061 805.344 409.513 809.327C418.125 813.385 426.615 817.826 435.005 822.214L435.105 822.266C443.556 826.686 451.907 831.053 460.348 835.026C477.228 842.973 494.183 849.207 512.205 850.945C548.822 854.477 585.096 842.51 620.917 829.876C655.984 817.507 690.285 803.01 717.061 778.617C730.076 766.76 739.832 752.216 748.833 736.542C752.212 730.656 755.535 724.512 758.894 718.3C764.321 708.264 769.844 698.051 775.861 688.459C782.244 678.282 789.854 668.37 797.291 658.684C801.558 653.126 805.768 647.641 809.657 642.224ZM804.156 664.859C796.941 674.244 789.861 683.453 783.656 693.345C777.74 702.777 772.527 712.428 767.246 722.204C763.863 728.467 760.453 734.781 756.811 741.123C747.646 757.085 737.331 772.59 723.277 785.394C695.057 811.102 659.248 826.088 624.019 838.513C588.429 851.066 550.302 863.819 511.366 860.063C491.816 858.178 473.75 851.446 456.46 843.306C447.814 839.236 439.292 834.779 430.869 830.374L430.854 830.366C422.407 825.948 414.059 821.582 405.621 817.605C397.335 813.7 388.827 810.092 380.221 806.442L379.87 806.293C371.175 802.605 362.384 798.871 353.805 794.803C336.648 786.666 320.066 777.069 306.154 763.37C280.482 738.091 266.485 704.11 253.189 671.831C252.149 669.307 251.113 666.792 250.077 664.293C249.212 662.21 248.341 660.119 247.466 658.021C233.948 625.589 219.724 591.462 219.841 555.33C219.904 536.033 224.815 517.789 231.049 500.161C233.829 492.302 236.898 484.495 239.936 476.766C240.304 475.83 240.672 474.896 241.038 473.962C244.444 465.286 247.769 456.694 250.652 448.032C253.556 439.304 255.967 430.277 258.342 421.096C258.695 419.733 259.047 418.365 259.4 416.994C261.411 409.181 263.446 401.274 265.756 393.524C271.191 375.294 278.284 357.426 290.815 342.302C303.318 327.211 319.293 316.443 336.163 307.42C346.281 302.007 357.074 297.057 367.672 292.195C374.487 289.069 381.222 285.98 387.646 282.829C420.633 266.645 454.343 250.166 491.435 243.631C528.967 237.018 567.968 235.794 605.503 244.64C643.087 253.499 678.866 270.587 708.91 294.979C736.933 317.731 755.903 348.775 774.197 378.715C775.264 380.462 776.329 382.205 777.394 383.942C796.529 415.174 813.364 447.595 824.174 482.892C825.222 486.315 826.301 489.769 827.389 493.252C837.626 526.017 848.644 561.286 841.927 595.98C838.162 615.42 828.281 632.057 817.137 647.581C812.867 653.528 808.487 659.225 804.156 664.859Z" fill="black"/>
<path fill-rule="evenodd" clip-rule="evenodd" d="M674.44 318.135C663.67 305.432 652.349 294.368 637.988 287.633C611.476 275.198 580.842 276.84 550.026 278.492C546.863 278.661 543.697 278.831 540.534 278.986C508.743 280.539 477.922 287.748 447.242 297.297C445.634 297.798 444.027 298.296 442.421 298.794C412.359 308.121 382.803 317.291 358.366 335.578C331.957 355.34 310.371 381.438 295.245 410.821C280.253 439.943 273.167 472.626 270.91 505.635C268.719 537.659 275.438 569.157 282.392 601.273C283.842 607.969 285.095 614.605 286.34 621.194C288.214 631.112 290.068 640.926 292.543 650.689C296.601 666.7 302.148 681.663 311.609 694.522C321.019 707.311 333.815 716.651 348.033 725.106C354.08 728.703 360.311 732.098 366.625 735.539C367.737 736.145 368.853 736.753 369.97 737.363C377.391 741.418 384.872 745.579 392.032 750.147C399.086 754.647 405.941 759.499 412.696 764.326C413.424 764.846 414.152 765.367 414.878 765.886C420.91 770.2 426.869 774.463 432.929 778.489C446.501 787.507 460.296 795.145 475.628 799.079C505.108 806.646 536.025 802.091 567.286 797.486C569.138 797.213 570.991 796.94 572.845 796.67C575.129 796.336 577.413 796.008 579.695 795.679C610.738 791.212 641.411 786.799 667.199 771.123C680.852 762.824 691.986 751.439 702.414 738.75C707.628 732.405 712.624 725.787 717.676 719.086L717.923 718.758C722.876 712.187 727.887 705.54 733.126 699.133C738.464 692.605 744.105 686.265 749.679 680.001L749.747 679.924C755.364 673.613 760.911 667.376 766.14 660.977C776.596 648.179 785.591 634.943 790.938 619.806C801.8 589.051 799.223 555.207 795.974 521.608C792.793 488.715 787.614 456.018 772.294 427.639C764.847 413.845 754.387 402.269 742.792 391.097C738.438 386.903 733.848 382.701 729.208 378.452C721.713 371.588 714.084 364.603 707.097 357.328C699.683 349.61 692.76 340.894 685.994 332.376C682.112 327.489 678.281 322.666 674.44 318.135ZM692.785 327.814C699.338 336.075 705.768 344.181 712.974 351.683C719.845 358.837 727.055 365.432 734.358 372.114C739.037 376.393 743.754 380.709 748.446 385.229C760.254 396.605 771.423 408.871 779.464 423.767C795.611 453.677 800.89 487.779 804.085 520.823C807.313 554.206 810.172 589.817 798.621 622.519C792.822 638.939 783.161 653.023 772.45 666.133C767.095 672.687 761.432 679.052 755.835 685.341L755.827 685.35C750.213 691.659 744.666 697.893 739.435 704.291C734.298 710.572 729.37 717.11 724.386 723.722L724.183 723.991C719.146 730.672 714.05 737.426 708.71 743.924C698.03 756.919 686.215 769.1 671.432 778.086C644.152 794.669 611.86 799.3 581.186 803.7C578.787 804.044 576.398 804.386 574.021 804.733C572.04 805.022 570.051 805.316 568.056 805.611C537.201 810.168 504.735 814.963 473.602 806.973C456.974 802.705 442.289 794.493 428.419 785.276C422.235 781.168 416.158 776.821 410.143 772.518C409.414 771.997 408.685 771.476 407.958 770.956C401.203 766.129 394.503 761.39 387.649 757.017C380.742 752.61 373.473 748.563 366.062 744.515C364.962 743.913 363.858 743.312 362.752 742.709C356.443 739.271 350.058 735.792 343.867 732.11C329.307 723.451 315.413 713.442 305.045 699.352C294.7 685.292 288.825 669.186 284.644 652.692C282.136 642.799 280.171 632.426 278.241 622.239C277 615.689 275.774 609.216 274.427 602.997C267.513 571.063 260.498 538.442 262.78 505.08C265.089 471.322 272.358 437.476 288 407.092C303.662 376.667 326.035 349.594 353.483 329.053C379.086 309.894 409.906 300.341 439.63 291.127C441.364 290.59 443.095 290.053 444.82 289.516C475.839 279.862 507.39 272.446 540.137 270.846C543.312 270.691 546.522 270.516 549.757 270.34C580.198 268.681 612.964 266.895 641.449 280.255C657.41 287.741 669.647 299.88 680.656 312.865C684.873 317.839 688.851 322.855 692.785 327.814Z" fill="black"/>
<path fill-rule="evenodd" clip-rule="evenodd" d="M779.465 157.528C760.858 135.582 741.798 117.09 717.953 105.904C673.185 84.902 621.346 87.6525 567.281 90.5212C561.832 90.8103 556.361 91.1006 550.872 91.368C496.139 94.0335 442.931 106.444 389.675 123.012C386.972 123.853 384.273 124.691 381.579 125.526C328.867 141.878 278.259 157.577 236.511 188.816C191.231 222.697 154.177 267.482 128.203 317.947C102.55 367.791 90.3365 423.923 86.4459 480.936C82.7029 535.784 94.2074 589.882 106.374 646.033C108.984 658.078 111.191 669.765 113.366 681.279C116.593 698.372 119.749 715.084 124.044 732.017C131.035 759.58 140.465 784.821 156.306 806.347C172 827.676 193.495 843.465 218.038 858.064C228.479 864.274 239.232 870.135 250.248 876.139C252.193 877.2 254.148 878.265 256.11 879.338C269.062 886.416 282.271 893.761 294.951 901.852C307.404 909.798 319.48 918.347 331.262 926.767C332.534 927.676 333.802 928.583 335.067 929.488C345.601 937.023 355.908 944.396 366.384 951.358C389.835 966.941 413.229 979.833 438.997 986.45C489.18 999.337 541.947 991.58 596.817 983.514C599.923 983.058 603.036 982.6 606.155 982.145C610.054 981.577 613.945 981.017 617.824 980.459C672.277 972.621 724.569 965.094 768.432 938.437C791.397 924.479 810.306 905.22 828.303 883.32C837.301 872.369 845.939 860.928 854.758 849.228L855.219 848.616C863.836 837.184 872.636 825.509 881.849 814.241C891.239 802.756 901.149 791.62 910.844 780.725L910.999 780.55C920.808 769.527 930.396 758.747 939.418 747.703C957.463 725.615 972.651 703.166 981.633 677.726C1000.06 625.545 995.762 567.841 990.07 509.076C984.525 451.819 975.557 395.845 949.45 347.492C936.906 324.261 919.192 304.587 899.125 285.254C891.78 278.177 883.877 270.938 875.818 263.556C862.602 251.449 848.967 238.96 836.69 226.178C823.598 212.548 811.135 196.867 799.18 181.826C792.455 173.365 785.891 165.106 779.465 157.528ZM821.201 167.048C832.467 181.257 843.325 194.954 855.742 207.882C867.643 220.272 879.914 231.492 892.507 243.007C900.69 250.49 909.009 258.097 917.452 266.231C938.211 286.231 958.229 308.147 972.706 334.96C1001.5 388.282 1010.79 448.817 1016.38 506.566C1022.01 564.629 1027.21 628.065 1006.56 686.558C996.112 716.155 978.767 741.35 959.9 764.444C950.475 775.98 940.523 787.164 930.786 798.107L930.759 798.137C920.95 809.161 911.356 819.943 902.324 830.99C893.444 841.851 884.912 853.17 876.196 864.734L875.876 865.158C867.105 876.794 858.142 888.673 848.737 900.119C829.926 923.01 808.812 944.848 782.185 961.03C733.491 990.625 675.952 998.856 622.698 1006.47C618.438 1007.08 614.206 1007.69 610.007 1008.3C606.472 1008.82 602.915 1009.34 599.34 1009.87C545.798 1017.78 488.005 1026.32 432.456 1012.05C402.479 1004.35 376.196 989.595 351.775 973.367C340.893 966.135 330.202 958.486 319.717 950.986C318.446 950.077 317.178 949.17 315.913 948.266C304.13 939.846 292.56 931.662 280.754 924.129C268.896 916.563 256.376 909.588 243.458 902.528C241.552 901.487 239.635 900.442 237.71 899.393C226.708 893.397 215.455 887.265 204.548 880.777C178.892 865.516 153.83 847.553 135.022 821.993C116.31 796.564 105.81 767.613 98.4211 738.481C94.0193 721.125 90.5027 702.597 87.0926 684.633C84.9314 673.247 82.8131 662.087 80.5395 651.595C68.4996 596.03 56.0334 538.289 60.0726 479.098C64.1288 419.658 76.9361 359.759 104.695 305.824C132.405 251.985 172.008 204.043 220.653 167.644C266.177 133.58 320.88 116.639 372.494 100.654C375.605 99.6908 378.704 98.731 381.789 97.7712C436.14 80.8617 491.716 67.7823 549.548 64.9659C555.079 64.6965 560.696 64.3891 566.382 64.0779C619.221 61.1856 677.979 57.9694 729.152 81.9759C758.198 95.6019 780.234 117.588 799.618 140.451C807.265 149.469 814.309 158.355 821.201 167.048Z" fill="black"/>
</g>
<defs>
<clipPath id="clip0_14380_25295">
<rect width="1080" height="1080" rx="200" fill="white"/>
</clipPath>
</defs>
</svg>
